<svg width="35" height="35" viewBox="0 0 35 35" fill="none" xmlns="http://www.w3.org/2000/svg">
<path d="M34.4847 17.8103C34.4847 8.51058 26.9458 0.97168 17.6461 0.97168C8.34639 0.97168 0.807495 8.51058 0.807495 17.8103C0.807495 27.11 8.34639 34.6489 17.6461 34.6489C26.9458 34.6489 34.4847 27.11 34.4847 17.8103Z" fill="white"/>
<mask id="mask0_3000_16597" style="mask-type:luminance" maskUnits="userSpaceOnUse" x="10" y="13" width="15" height="9">
<path d="M24.0884 13.2734H10.635V21.7703H24.0884V13.2734Z" fill="white"/>
</mask>
<g mask="url(#mask0_3000_16597)">
<path fill-rule="evenodd" clip-rule="evenodd" d="M20.699 13.9497L23.9141 17.1647C24.1114 17.362 24.1114 17.6819 23.9141 17.8792L20.699 21.0943C20.5017 21.2916 20.1818 21.2916 19.9845 21.0943C19.7873 20.897 19.7873 20.5771 19.9845 20.3798L22.3372 18.0272H10.635V17.0168H22.3372L19.9845 14.6642C19.7873 14.4669 19.7873 14.147 19.9845 13.9497C20.1818 13.7524 20.5017 13.7524 20.699 13.9497Z" fill="black"/>
</g>
</svg>
