<svg width="24" height="24" viewBox="0 0 24 24" fill="none" xmlns="http://www.w3.org/2000/svg">
<path fill-rule="evenodd" clip-rule="evenodd" d="M11.9999 0C15.2589 0 15.6674 0.0138139 16.9474 0.0722132C18.2246 0.13047 19.097 0.333343 19.8602 0.630008C20.6494 0.936629 21.3186 1.34695 21.9858 2.01407C22.6529 2.68123 23.0632 3.35044 23.3698 4.13955C23.6665 4.90283 23.8693 5.77516 23.9276 7.05241C23.986 8.33235 23.9998 8.741 23.9998 12C23.9998 15.2591 23.986 15.6676 23.9276 16.9476C23.8693 18.2248 23.6665 19.0972 23.3698 19.8604C23.0632 20.6496 22.6529 21.3188 21.9858 21.986C21.3186 22.6531 20.6494 23.0633 19.8602 23.37C19.097 23.6667 18.2246 23.8695 16.9474 23.9277C15.6674 23.9861 15.2589 24 11.9999 24C8.74085 24 8.33219 23.9861 7.05226 23.9277C5.77501 23.8695 4.90267 23.6667 4.13939 23.37C3.35029 23.0633 2.68107 22.6531 2.01391 21.986C1.34679 21.3188 0.936477 20.6496 0.629855 19.8604C0.33319 19.0972 0.130317 18.2248 0.0720606 16.9476C0.0136613 15.6676 -0.000152588 15.2591 -0.000152588 12C-0.000152588 8.741 0.0136613 8.33235 0.0720606 7.05241C0.130317 5.77516 0.33319 4.90283 0.629855 4.13955C0.936477 3.35044 1.34679 2.68123 2.01391 2.01407C2.68107 1.34695 3.35029 0.936629 4.13939 0.630008C4.90267 0.333343 5.77501 0.13047 7.05226 0.0722132C8.33219 0.0138139 8.74085 0 11.9999 0ZM11.9999 2.16216C8.79571 2.16216 8.41617 2.1744 7.15082 2.23213C5.98083 2.28548 5.34543 2.48097 4.92259 2.64531C4.36246 2.863 3.96271 3.12303 3.54282 3.54297C3.12287 3.96287 2.86285 4.36261 2.64515 4.92275C2.48082 5.34559 2.28533 5.98099 2.23198 7.15097C2.17425 8.41632 2.16201 8.79587 2.16201 12C2.16201 15.2041 2.17425 15.5837 2.23198 16.8491C2.28533 18.0191 2.48082 18.6544 2.64515 19.0772C2.86285 19.6373 3.12293 20.0371 3.54282 20.4571C3.96271 20.8769 4.36246 21.1369 4.92259 21.3547C5.34543 21.5191 5.98083 21.7145 7.15082 21.7679C8.41602 21.8256 8.79547 21.8379 11.9999 21.8379C15.2042 21.8379 15.5837 21.8256 16.8489 21.7679C18.0189 21.7145 18.6542 21.5191 19.077 21.3547C19.6372 21.1369 20.0369 20.8769 20.4569 20.4571C20.8768 20.0371 21.1368 19.6373 21.3545 19.0772C21.5189 18.6544 21.7144 18.0191 21.7677 16.8491C21.8254 15.5837 21.8377 15.2041 21.8377 12C21.8377 8.79587 21.8254 8.41632 21.7677 7.15097C21.7144 5.98099 21.5189 5.34559 21.3545 4.92275C21.1368 4.36261 20.8768 3.96287 20.4569 3.54297C20.0369 3.12303 19.6372 2.863 19.077 2.64531C18.6542 2.48097 18.0189 2.28548 16.8489 2.23213C15.5836 2.1744 15.204 2.16216 11.9999 2.16216ZM11.9999 5.83784C15.4032 5.83784 18.162 8.59671 18.162 12C18.162 15.4033 15.4032 18.1621 11.9999 18.1621C8.59655 18.1621 5.83769 15.4033 5.83769 12C5.83769 8.59671 8.59655 5.83784 11.9999 5.83784ZM11.9999 16C14.209 16 15.9998 14.2092 15.9998 12C15.9998 9.79085 14.209 8 11.9999 8C9.7907 8 7.99985 9.79085 7.99985 12C7.99985 14.2092 9.7907 16 11.9999 16ZM19.8454 5.59439C19.8454 6.38968 19.2008 7.03436 18.4054 7.03436C17.6102 7.03436 16.9654 6.38968 16.9654 5.59439C16.9654 4.79908 17.6102 4.15436 18.4054 4.15436C19.2008 4.15436 19.8454 4.79908 19.8454 5.59439Z" fill="url(#paint0_linear_2985_16569)"/>
<defs>
<linearGradient id="paint0_linear_2985_16569" x1="-0.000152588" y1="12" x2="23.9998" y2="12" gradientUnits="userSpaceOnUse">
<stop stop-color="#B2E69B"/>
<stop offset="1" stop-color="#72E896"/>
</linearGradient>
</defs>
</svg>
