<svg width="277" height="48" viewBox="0 0 277 48" fill="none" xmlns="http://www.w3.org/2000/svg">
<mask id="path-1-inside-1_2998_20573" fill="white">
<path d="M269 0C273.418 4.15545e-06 277 3.58172 277 8V21.466C277 21.7784 276.689 22 276.377 22V22H275.377C274.273 22.0003 273.378 22.8956 273.378 24C273.378 25.1046 274.273 26 275.378 26H276.378V26C276.69 25.9999 277 26.2202 277 26.5322V40C277 44.4183 273.418 48 269 48H8C3.58173 48 1.28856e-07 44.4183 0 40V27.1342C0 26.733 1.52951 26 1.93066 26V26H3.93066C5.03518 25.9999 5.93066 25.1045 5.93066 24C5.93066 22.8955 5.03518 22.0001 3.93066 22H1.93066V22C1.52899 22 0 21.2673 0 20.8656V8C5.15422e-07 3.58172 3.58172 0 8 0H269Z"/>
</mask>
<path d="M269 0C273.418 4.15545e-06 277 3.58172 277 8V21.466C277 21.7784 276.689 22 276.377 22V22H275.377C274.273 22.0003 273.378 22.8956 273.378 24C273.378 25.1046 274.273 26 275.378 26H276.378V26C276.69 25.9999 277 26.2202 277 26.5322V40C277 44.4183 273.418 48 269 48H8C3.58173 48 1.28856e-07 44.4183 0 40V27.1342C0 26.733 1.52951 26 1.93066 26V26H3.93066C5.03518 25.9999 5.93066 25.1045 5.93066 24C5.93066 22.8955 5.03518 22.0001 3.93066 22H1.93066V22C1.52899 22 0 21.2673 0 20.8656V8C5.15422e-07 3.58172 3.58172 0 8 0H269Z" fill="#525252" fill-opacity="0.33"/>
<path d="M269 0C273.418 4.15545e-06 277 3.58172 277 8V21.466C277 21.7784 276.689 22 276.377 22V22H275.377C274.273 22.0003 273.378 22.8956 273.378 24C273.378 25.1046 274.273 26 275.378 26H276.378V26C276.69 25.9999 277 26.2202 277 26.5322V40C277 44.4183 273.418 48 269 48H8C3.58173 48 1.28856e-07 44.4183 0 40V27.1342C0 26.733 1.52951 26 1.93066 26V26H3.93066C5.03518 25.9999 5.93066 25.1045 5.93066 24C5.93066 22.8955 5.03518 22.0001 3.93066 22H1.93066V22C1.52899 22 0 21.2673 0 20.8656V8C5.15422e-07 3.58172 3.58172 0 8 0H269Z" fill="#030406" fill-opacity="0.12"/>
<path d="M269 0L269 -1H269V0ZM277 8L278 8V8L277 8ZM275.377 22L275.377 21L275.377 21L275.377 22ZM277 40L278 40V40H277ZM8 48L8 49H8V48ZM0 40L-1 40L-1 40L0 40ZM3.93066 26L3.93066 27L3.93072 27L3.93066 26ZM3.93066 22L3.93072 21H3.93066V22ZM0 8L-1 8V8H0ZM269 0L269 1C272.866 1 276 4.13401 276 8L277 8L278 8C278 3.02944 273.971 -0.999995 269 -1L269 0ZM277 8H276V21.466H277H278V8H277ZM276.377 22V21H275.377V22V23H276.377V22ZM275.377 22L275.377 21C273.72 21.0004 272.378 22.3437 272.378 24H273.378H274.378C274.378 23.4475 274.825 23.0001 275.377 23L275.377 22ZM273.378 24H272.378C272.378 25.6569 273.721 27 275.378 27V26V25C274.826 25 274.378 24.5523 274.378 24H273.378ZM275.378 26V27H276.378V26V25H275.378V26ZM277 26.5322H276V40H277H278V26.5322H277ZM277 40L276 40C276 43.866 272.866 47 269 47V48V49C273.971 49 278 44.9706 278 40L277 40ZM269 48V47H8V48V49H269V48ZM8 48L8 47C4.13401 47 1 43.866 1 40L0 40L-1 40C-1 44.9706 3.02944 49 8 49L8 48ZM0 40H1V27.1342H0H-1V40H0ZM1.93066 26V27H3.93066V26V25H1.93066V26ZM3.93066 26L3.93072 27C5.58742 26.9999 6.93066 25.6569 6.93066 24H5.93066H4.93066C4.93066 24.5522 4.48294 25 3.9306 25L3.93066 26ZM5.93066 24H6.93066C6.93066 22.3431 5.58742 21.0001 3.93072 21L3.93066 22L3.9306 23C4.48294 23 4.93066 23.4478 4.93066 24H5.93066ZM3.93066 22V21H1.93066V22V23H3.93066V22ZM0 20.8656H1V8H0H-1V20.8656H0ZM0 8L1 8C1 4.13401 4.13401 1 8 1V0V-1C3.02944 -1 -0.999999 3.02944 -1 8L0 8ZM8 0V1H269V0V-1H8V0ZM1.93066 22V21C2.00665 21 2.03502 21.0131 1.9835 20.9998C1.94626 20.9901 1.88808 20.972 1.81079 20.943C1.6564 20.885 1.46886 20.8001 1.28963 20.7034C1.1047 20.6036 0.965146 20.5109 0.886857 20.4454C0.846432 20.4115 0.85164 20.4092 0.874794 20.4409C0.886879 20.4575 1 20.6103 1 20.8656H0H-1C-1 21.2213 -0.839098 21.4849 -0.741827 21.6185C-0.633488 21.7672 -0.50569 21.8879 -0.396495 21.9793C-0.175547 22.1642 0.0922481 22.3299 0.33978 22.4635C0.593007 22.6001 0.86303 22.7235 1.10829 22.8155C1.30681 22.89 1.63024 23 1.93066 23V22ZM0 27.1342H1C1 27.39 0.886522 27.543 0.874533 27.5594C0.851384 27.5912 0.846212 27.5888 0.886703 27.5549C0.965105 27.4894 1.10479 27.3965 1.2898 27.2967C1.46912 27.1999 1.65673 27.115 1.81115 27.057C1.88845 27.028 1.94663 27.0099 1.98385 27.0002C2.03541 26.9868 2.00687 27 1.93066 27V26V25C1.63021 25 1.30668 25.1101 1.10837 25.1846C0.863188 25.2766 0.593202 25.4 0.339999 25.5366C0.0924867 25.6702 -0.175277 25.8359 -0.396194 26.0206C-0.505363 26.1119 -0.633162 26.2325 -0.741524 26.3811C-0.838725 26.5145 -1 26.7781 -1 27.1342H0ZM276.378 26L276.378 27C276.31 27 276.243 26.9794 276.178 26.9272C276.105 26.8685 276 26.7329 276 26.5322H277H278C278 25.4787 277.032 24.9998 276.378 25L276.378 26ZM277 21.466H276C276 21.2657 276.105 21.1309 276.177 21.0728C276.241 21.021 276.308 21 276.377 21V22V23C277.034 23 278 22.5181 278 21.466H277Z" fill="url(#paint0_linear_2998_20573)" mask="url(#path-1-inside-1_2998_20573)"/>
<defs>
<linearGradient id="paint0_linear_2998_20573" x1="-66.8865" y1="24.338" x2="283.095" y2="101.891" gradientUnits="userSpaceOnUse">
<stop stop-color="white" stop-opacity="0"/>
<stop offset="0.548077" stop-color="white"/>
<stop offset="1" stop-color="white" stop-opacity="0"/>
</linearGradient>
</defs>
</svg>
