<svg width="1401" height="73" viewBox="0 0 1401 73" fill="none" xmlns="http://www.w3.org/2000/svg">
<path d="M1167 36.5C1167 35.1193 1168.12 34 1169.5 34H1188.5C1189.88 34 1191 35.1193 1191 36.5C1191 37.8807 1189.88 39 1188.5 39H1169.5C1168.12 39 1167 37.8807 1167 36.5Z" fill="url(#paint0_linear_2439_13514)"/>
<path d="M1167 36.5C1167 35.1193 1168.12 34 1169.5 34H1188.5C1189.88 34 1191 35.1193 1191 36.5C1191 37.8807 1189.88 39 1188.5 39H1169.5C1168.12 39 1167 37.8807 1167 36.5Z" stroke="#525252" stroke-opacity="0.33" stroke-width="1.02639"/>
<path d="M1167 36.5C1167 35.1193 1168.12 34 1169.5 34H1188.5C1189.88 34 1191 35.1193 1191 36.5C1191 37.8807 1189.88 39 1188.5 39H1169.5C1168.12 39 1167 37.8807 1167 36.5Z" stroke="#030406" stroke-opacity="0.12" stroke-width="1.02639"/>
<path fill-rule="evenodd" clip-rule="evenodd" d="M1 9C1 4.58172 4.58172 1 9 1H1165C1169.42 1 1173 4.58172 1173 9V29.9908C1173 32.1856 1171.22 33.9648 1169.03 33.9648C1167.63 33.9648 1166.49 35.1001 1166.49 36.5006C1166.49 37.901 1167.63 39.0363 1169.03 39.0363C1171.22 39.0363 1173 40.8155 1173 43.0103V64C1173 68.4183 1169.42 72 1165 72H8.99998C4.5817 72 1 68.4183 1 64V47.0363C1 42.618 4.58172 39.0363 9 39.0363H11.0912C12.4916 39.0363 13.6269 37.901 13.6269 36.5006C13.6269 35.1001 12.4916 33.9648 11.0912 33.9648H9C4.58172 33.9648 1 30.3831 1 25.9648V9Z" fill="#525252" fill-opacity="0.33"/>
<path fill-rule="evenodd" clip-rule="evenodd" d="M1 9C1 4.58172 4.58172 1 9 1H1165C1169.42 1 1173 4.58172 1173 9V29.9908C1173 32.1856 1171.22 33.9648 1169.03 33.9648C1167.63 33.9648 1166.49 35.1001 1166.49 36.5006C1166.49 37.901 1167.63 39.0363 1169.03 39.0363C1171.22 39.0363 1173 40.8155 1173 43.0103V64C1173 68.4183 1169.42 72 1165 72H8.99998C4.5817 72 1 68.4183 1 64V47.0363C1 42.618 4.58172 39.0363 9 39.0363H11.0912C12.4916 39.0363 13.6269 37.901 13.6269 36.5006C13.6269 35.1001 12.4916 33.9648 11.0912 33.9648H9C4.58172 33.9648 1 30.3831 1 25.9648V9Z" fill="#030406" fill-opacity="0.12"/>
<path d="M9 0.486804C4.29829 0.486804 0.486804 4.29829 0.486804 9H1.5132C1.5132 4.86515 4.86515 1.5132 9 1.5132V0.486804ZM1165 0.486804H9V1.5132H1165V0.486804ZM1173.51 9C1173.51 4.29829 1169.7 0.486804 1165 0.486804V1.5132C1169.13 1.5132 1172.49 4.86515 1172.49 9H1173.51ZM1173.51 29.9908V9H1172.49V29.9908H1173.51ZM1167 36.5006C1167 35.3836 1167.91 34.478 1169.03 34.478V33.4516C1167.34 33.4516 1165.98 34.8167 1165.98 36.5006H1167ZM1169.03 38.5231C1167.91 38.5231 1167 37.6176 1167 36.5006H1165.98C1165.98 38.1844 1167.34 39.5495 1169.03 39.5495V38.5231ZM1173.51 64V43.0103H1172.49V64H1173.51ZM1165 72.5132C1169.7 72.5132 1173.51 68.7017 1173.51 64H1172.49C1172.49 68.1348 1169.13 71.4868 1165 71.4868V72.5132ZM8.99998 72.5132H1165V71.4868H8.99998V72.5132ZM0.486804 64C0.486804 68.7017 4.29827 72.5132 8.99998 72.5132V71.4868C4.86514 71.4868 1.5132 68.1348 1.5132 64H0.486804ZM0.486804 47.0363V64H1.5132V47.0363H0.486804ZM11.0912 38.5231H9V39.5495H11.0912V38.5231ZM13.1137 36.5006C13.1137 37.6176 12.2082 38.5231 11.0912 38.5231V39.5495C12.7751 39.5495 14.1401 38.1844 14.1401 36.5006H13.1137ZM11.0912 34.478C12.2082 34.478 13.1137 35.3836 13.1137 36.5006H14.1401C14.1401 34.8167 12.7751 33.4516 11.0912 33.4516V34.478ZM9 34.478H11.0912V33.4516H9V34.478ZM0.486804 9V25.9648H1.5132V9H0.486804ZM9 33.4516C4.86515 33.4516 1.5132 30.0997 1.5132 25.9648H0.486804C0.486804 30.6666 4.29829 34.478 9 34.478V33.4516ZM1.5132 47.0363C1.5132 42.9014 4.86515 39.5495 9 39.5495V38.5231C4.29829 38.5231 0.486804 42.3346 0.486804 47.0363H1.5132ZM1169.03 39.5495C1170.94 39.5495 1172.49 41.0989 1172.49 43.0103H1173.51C1173.51 40.5321 1171.5 38.5231 1169.03 38.5231V39.5495ZM1172.49 29.9908C1172.49 31.9022 1170.94 33.4516 1169.03 33.4516V34.478C1171.5 34.478 1173.51 32.4691 1173.51 29.9908H1172.49Z" fill="url(#paint1_linear_2439_13514)"/>
<path fill-rule="evenodd" clip-rule="evenodd" d="M1184 9C1184 4.58172 1187.58 1 1192 1H1392C1396.42 1 1400 4.58172 1400 9V29.5006C1400 31.9661 1398 33.9648 1395.54 33.9648C1394.14 33.9648 1393 35.1001 1393 36.5006C1393 37.901 1394.14 39.0363 1395.54 39.0363C1398 39.0363 1400 41.035 1400 43.5005V64C1400 68.4183 1396.42 72 1392 72H1192C1187.58 72 1184 68.4183 1184 64V42.1441C1184 40.4277 1185.39 39.0363 1187.11 39.0363C1188.51 39.0363 1189.64 37.901 1189.64 36.5006C1189.64 35.1001 1188.51 33.9648 1187.11 33.9648C1185.39 33.9648 1184 32.5734 1184 30.857V9Z" fill="#525252" fill-opacity="0.33"/>
<path fill-rule="evenodd" clip-rule="evenodd" d="M1184 9C1184 4.58172 1187.58 1 1192 1H1392C1396.42 1 1400 4.58172 1400 9V29.5006C1400 31.9661 1398 33.9648 1395.54 33.9648C1394.14 33.9648 1393 35.1001 1393 36.5006C1393 37.901 1394.14 39.0363 1395.54 39.0363C1398 39.0363 1400 41.035 1400 43.5005V64C1400 68.4183 1396.42 72 1392 72H1192C1187.58 72 1184 68.4183 1184 64V42.1441C1184 40.4277 1185.39 39.0363 1187.11 39.0363C1188.51 39.0363 1189.64 37.901 1189.64 36.5006C1189.64 35.1001 1188.51 33.9648 1187.11 33.9648C1185.39 33.9648 1184 32.5734 1184 30.857V9Z" fill="#030406" fill-opacity="0.12"/>
<path d="M1192 0.486804C1187.3 0.486804 1183.49 4.29829 1183.49 9H1184.51C1184.51 4.86515 1187.87 1.5132 1192 1.5132V0.486804ZM1392 0.486804H1192V1.5132H1392V0.486804ZM1400.51 9C1400.51 4.29829 1396.7 0.486804 1392 0.486804V1.5132C1396.13 1.5132 1399.49 4.86515 1399.49 9H1400.51ZM1400.51 29.5006V9H1399.49V29.5006H1400.51ZM1393.51 36.5006C1393.51 35.3836 1394.42 34.478 1395.54 34.478V33.4516C1393.85 33.4516 1392.49 34.8167 1392.49 36.5006H1393.51ZM1395.54 38.5231C1394.42 38.5231 1393.51 37.6176 1393.51 36.5006H1392.49C1392.49 38.1844 1393.85 39.5495 1395.54 39.5495V38.5231ZM1400.51 64V43.5005H1399.49V64H1400.51ZM1392 72.5132C1396.7 72.5132 1400.51 68.7017 1400.51 64H1399.49C1399.49 68.1348 1396.13 71.4868 1392 71.4868V72.5132ZM1192 72.5132H1392V71.4868H1192V72.5132ZM1183.49 64C1183.49 68.7017 1187.3 72.5132 1192 72.5132V71.4868C1187.87 71.4868 1184.51 68.1348 1184.51 64H1183.49ZM1183.49 42.1441V64H1184.51V42.1441H1183.49ZM1189.13 36.5006C1189.13 37.6176 1188.22 38.5231 1187.11 38.5231V39.5495C1188.79 39.5495 1190.16 38.1844 1190.16 36.5006H1189.13ZM1187.11 34.478C1188.22 34.478 1189.13 35.3836 1189.13 36.5006H1190.16C1190.16 34.8167 1188.79 33.4516 1187.11 33.4516V34.478ZM1183.49 9V30.857H1184.51V9H1183.49ZM1187.11 33.4516C1185.67 33.4516 1184.51 32.29 1184.51 30.857H1183.49C1183.49 32.8569 1185.11 34.478 1187.11 34.478V33.4516ZM1184.51 42.1441C1184.51 40.7111 1185.67 39.5495 1187.11 39.5495V38.5231C1185.11 38.5231 1183.49 40.1443 1183.49 42.1441H1184.51ZM1395.54 39.5495C1397.72 39.5495 1399.49 41.3184 1399.49 43.5005H1400.51C1400.51 40.7516 1398.28 38.5231 1395.54 38.5231V39.5495ZM1399.49 29.5006C1399.49 31.6827 1397.72 33.4516 1395.54 33.4516V34.478C1398.28 34.478 1400.51 32.2495 1400.51 29.5006H1399.49Z" fill="url(#paint2_linear_2439_13514)"/>
<defs>
<linearGradient id="paint0_linear_2439_13514" x1="1166.34" y1="33.7778" x2="1192.44" y2="40.9021" gradientUnits="userSpaceOnUse">
<stop stop-color="white" stop-opacity="0"/>
<stop offset="0.548077" stop-color="white"/>
<stop offset="1" stop-color="white" stop-opacity="0"/>
</linearGradient>
<linearGradient id="paint1_linear_2439_13514" x1="-282" y1="37" x2="826.245" y2="739.461" gradientUnits="userSpaceOnUse">
<stop stop-color="white" stop-opacity="0"/>
<stop offset="0.548077" stop-color="white"/>
<stop offset="1" stop-color="white" stop-opacity="0"/>
</linearGradient>
<linearGradient id="paint2_linear_2439_13514" x1="1166.5" y1="50.5" x2="1391.1" y2="100.485" gradientUnits="userSpaceOnUse">
<stop stop-color="white" stop-opacity="0"/>
<stop offset="0.548077" stop-color="white"/>
<stop offset="1" stop-color="white" stop-opacity="0"/>
</linearGradient>
</defs>
</svg>
