<svg width="20" height="14" viewBox="0 0 20 14" fill="none" xmlns="http://www.w3.org/2000/svg">
<path d="M5 1C5 0.447734 5.44773 0 6 0H19C19.5523 0 20 0.447734 20 1C20 1.55227 19.5523 2 19 2H6C5.44773 2 5 1.55223 5 1ZM19 6H1C0.447734 6 0 6.44777 0 7C0 7.55227 0.447734 8 1 8H19C19.5523 8 20 7.55227 20 7C20 6.44777 19.5523 6 19 6ZM19 12H10C9.44777 12 9 12.4477 9 13C9 13.5522 9.44777 14 10 14H19C19.5523 14 20 13.5522 20 13C20 12.4477 19.5523 12 19 12Z" fill="url(#paint0_linear_2985_10951)"/>
<defs>
<linearGradient id="paint0_linear_2985_10951" x1="10" y1="6.7348" x2="10" y2="6.91003" gradientUnits="userSpaceOnUse">
<stop stop-color="#F9F4EE"/>
<stop offset="1" stop-color="white"/>
</linearGradient>
</defs>
</svg>
