<svg width="375" height="481" viewBox="0 0 375 481" fill="none" xmlns="http://www.w3.org/2000/svg">
<g clip-path="url(#clip0_3178_38072)">
<g filter="url(#filter0_d_3178_38072)">
<path d="M-49 321.5C-49 188.123 59.1232 80 192.5 80C325.877 80 434 188.123 434 321.5V481H-49V321.5Z" fill="url(#paint0_linear_3178_38072)"/>
</g>
<g opacity="0.2" filter="url(#filter1_f_3178_38072)">
<path d="M192.848 183.133C216.633 183.133 235.915 163.852 235.915 140.067C235.915 116.282 216.633 97 192.848 97C169.063 97 149.781 116.282 149.781 140.067C149.781 163.852 169.063 183.133 192.848 183.133Z" fill="url(#paint1_radial_3178_38072)" fill-opacity="0.4"/>
</g>
<g filter="url(#filter2_f_3178_38072)">
<rect width="3.72252" height="3.72252" transform="matrix(-0.707107 -0.707107 -0.707107 0.707107 148.473 178.347)" fill="url(#paint2_radial_3178_38072)"/>
<path opacity="0.4" d="M147.245 178.347L145.84 175.715L144.436 178.347L145.84 180.979L147.245 178.347Z" fill="#8FD59A"/>
<g filter="url(#filter3_d_3178_38072)">
<path d="M148.463 178.344H143.188L145.873 180.972L148.463 178.344Z" fill="url(#paint3_radial_3178_38072)"/>
</g>
<path d="M147.245 178.348L145.84 178.348L144.436 178.348L145.84 180.98L147.245 178.348Z" fill="url(#paint4_radial_3178_38072)"/>
<path d="M147.245 178.348L145.84 178.348L144.436 178.348L145.84 180.98L147.245 178.348Z" fill="#8FD59A"/>
</g>
<g filter="url(#filter4_i_3178_38072)">
<path d="M98.7537 135.977C98.3708 137.702 99.4588 139.411 101.184 139.793C102.909 140.176 104.617 139.088 105 137.363C105.383 135.639 104.295 133.93 102.57 133.547C100.845 133.164 99.1365 134.252 98.7537 135.977Z" fill="url(#paint5_radial_3178_38072)"/>
</g>
<g filter="url(#filter5_di_3178_38072)">
<path d="M302.841 180.58C302.587 181.723 303.308 182.855 304.451 183.108C305.594 183.362 306.726 182.641 306.98 181.498C307.234 180.355 306.513 179.223 305.37 178.969C304.227 178.716 303.095 179.437 302.841 180.58Z" fill="url(#paint6_radial_3178_38072)"/>
</g>
<path d="M87.4132 129.613L86.9204 130.361L87.2849 131.179L86.537 130.686L85.7188 131.051L86.2117 130.303L85.8471 129.485L86.5951 129.977L87.4132 129.613Z" fill="white"/>
<path d="M300.09 193.402L299.597 194.15L299.962 194.968L299.214 194.475L298.396 194.84L298.888 194.092L298.524 193.274L299.272 193.766L300.09 193.402Z" fill="white"/>
<path d="M170.09 266.738L169.597 267.486L169.962 268.304L169.214 267.811L168.396 268.176L168.888 267.428L168.524 266.61L169.272 267.102L170.09 266.738Z" fill="white"/>
<path d="M190.09 150.066L189.597 150.814L189.962 151.632L189.214 151.139L188.396 151.504L188.888 150.756L188.524 149.938L189.272 150.43L190.09 150.066Z" fill="white"/>
<path d="M128.98 177.847L128.487 178.595L128.851 179.413L128.103 178.92L127.285 179.285L127.778 178.537L127.414 177.719L128.161 178.212L128.98 177.847Z" fill="white"/>
<path d="M321.201 132.293L320.708 133.04L321.073 133.859L320.325 133.366L319.507 133.73L320 132.982L319.635 132.164L320.383 132.657L321.201 132.293Z" fill="white"/>
<path d="M320.09 291.183L319.597 291.931L319.962 292.749L319.214 292.256L318.396 292.621L318.888 291.873L318.524 291.055L319.272 291.548L320.09 291.183Z" fill="white"/>
<path d="M311.201 463.402L310.708 464.15L311.073 464.968L310.325 464.475L309.507 464.84L310 464.092L309.635 463.274L310.383 463.766L311.201 463.402Z" fill="white"/>
<path d="M154.535 391.183L154.042 391.931L154.407 392.749L153.659 392.256L152.841 392.621L153.334 391.873L152.969 391.055L153.717 391.548L154.535 391.183Z" fill="white"/>
<path d="M92.5042 432.03L91.5185 433.526L92.2476 435.163L90.7517 434.177L89.1154 434.906L90.1011 433.41L89.372 431.774L90.8679 432.759L92.5042 432.03Z" fill="white"/>
<path d="M268.208 285.654L267.331 285.835L267.01 286.671L266.83 285.794L265.993 285.473L266.871 285.292L267.191 284.456L267.372 285.334L268.208 285.654Z" fill="white"/>
<path d="M217.139 396.436L216.261 396.616L215.941 397.452L215.76 396.575L214.924 396.254L215.801 396.074L216.122 395.237L216.302 396.115L217.139 396.436Z" fill="white"/>
<path d="M325.884 221.965L324.129 222.326L323.488 223.998L323.127 222.243L321.454 221.602L323.209 221.241L323.851 219.569L324.211 221.323L325.884 221.965Z" fill="white"/>
<path d="M71.3254 459.238L69.5707 459.599L68.9291 461.272L68.5684 459.517L66.8958 458.875L68.6505 458.515L69.292 456.842L69.6528 458.597L71.3254 459.238Z" fill="white"/>
</g>
<defs>
<filter id="filter0_d_3178_38072" x="-149" y="-20" width="683" height="601" filterUnits="userSpaceOnUse" color-interpolation-filters="sRGB">
<feFlood flood-opacity="0" result="BackgroundImageFix"/>
<feColorMatrix in="SourceAlpha" type="matrix" values="0 0 0 0 0 0 0 0 0 0 0 0 0 0 0 0 0 0 127 0" result="hardAlpha"/>
<feOffset/>
<feGaussianBlur stdDeviation="50"/>
<feComposite in2="hardAlpha" operator="out"/>
<feColorMatrix type="matrix" values="0 0 0 0 0.709804 0 0 0 0 0.94902 0 0 0 0 0.737255 0 0 0 0.4 0"/>
<feBlend mode="normal" in2="BackgroundImageFix" result="effect1_dropShadow_3178_38072"/>
<feBlend mode="normal" in="SourceGraphic" in2="effect1_dropShadow_3178_38072" result="shape"/>
</filter>
<filter id="filter1_f_3178_38072" x="109.705" y="56.9239" width="166.286" height="166.286" filterUnits="userSpaceOnUse" color-interpolation-filters="sRGB">
<feFlood flood-opacity="0" result="BackgroundImageFix"/>
<feBlend mode="normal" in="SourceGraphic" in2="BackgroundImageFix" result="shape"/>
<feGaussianBlur stdDeviation="20.0381" result="effect1_foregroundBlur_3178_38072"/>
</filter>
<filter id="filter2_f_3178_38072" x="142.981" y="175.509" width="5.69728" height="5.67775" filterUnits="userSpaceOnUse" color-interpolation-filters="sRGB">
<feFlood flood-opacity="0" result="BackgroundImageFix"/>
<feBlend mode="normal" in="SourceGraphic" in2="BackgroundImageFix" result="shape"/>
<feGaussianBlur stdDeviation="0.10303" result="effect1_foregroundBlur_3178_38072"/>
</filter>
<filter id="filter3_d_3178_38072" x="142.286" y="178.344" width="7.35178" height="5.0595" filterUnits="userSpaceOnUse" color-interpolation-filters="sRGB">
<feFlood flood-opacity="0" result="BackgroundImageFix"/>
<feColorMatrix in="SourceAlpha" type="matrix" values="0 0 0 0 0 0 0 0 0 0 0 0 0 0 0 0 0 0 127 0" result="hardAlpha"/>
<feOffset dx="0.136605" dy="1.39337"/>
<feGaussianBlur stdDeviation="0.519098"/>
<feComposite in2="hardAlpha" operator="out"/>
<feColorMatrix type="matrix" values="0 0 0 0 0.0117647 0 0 0 0 0.0784314 0 0 0 0 0.160784 0 0 0 0.1 0"/>
<feBlend mode="multiply" in2="BackgroundImageFix" result="effect1_dropShadow_3178_38072"/>
<feBlend mode="normal" in="SourceGraphic" in2="effect1_dropShadow_3178_38072" result="shape"/>
</filter>
<filter id="filter4_i_3178_38072" x="97.6537" y="132.504" width="7.42341" height="7.36626" filterUnits="userSpaceOnUse" color-interpolation-filters="sRGB">
<feFlood flood-opacity="0" result="BackgroundImageFix"/>
<feBlend mode="normal" in="SourceGraphic" in2="BackgroundImageFix" result="shape"/>
<feColorMatrix in="SourceAlpha" type="matrix" values="0 0 0 0 0 0 0 0 0 0 0 0 0 0 0 0 0 0 127 0" result="hardAlpha"/>
<feOffset dx="-1.02302" dy="-0.966355"/>
<feGaussianBlur stdDeviation="1.53147"/>
<feComposite in2="hardAlpha" operator="arithmetic" k2="-1" k3="1"/>
<feColorMatrix type="matrix" values="0 0 0 0 0.141176 0 0 0 0 0.694118 0 0 0 0 0.454902 0 0 0 1 0"/>
<feBlend mode="lighten" in2="shape" result="effect1_innerShadow_3178_38072"/>
</filter>
<filter id="filter5_di_3178_38072" x="301.767" y="177.952" width="6.08847" height="6.85556" filterUnits="userSpaceOnUse" color-interpolation-filters="sRGB">
<feFlood flood-opacity="0" result="BackgroundImageFix"/>
<feColorMatrix in="SourceAlpha" type="matrix" values="0 0 0 0 0 0 0 0 0 0 0 0 0 0 0 0 0 0 127 0" result="hardAlpha"/>
<feOffset dy="0.824242"/>
<feGaussianBlur stdDeviation="0.412121"/>
<feComposite in2="hardAlpha" operator="out"/>
<feColorMatrix type="matrix" values="0 0 0 0 0 0 0 0 0 0 0 0 0 0 0 0 0 0 0.25 0"/>
<feBlend mode="normal" in2="BackgroundImageFix" result="effect1_dropShadow_3178_38072"/>
<feBlend mode="normal" in="SourceGraphic" in2="effect1_dropShadow_3178_38072" result="shape"/>
<feColorMatrix in="SourceAlpha" type="matrix" values="0 0 0 0 0 0 0 0 0 0 0 0 0 0 0 0 0 0 127 0" result="hardAlpha"/>
<feOffset dx="-1.02302" dy="-0.966355"/>
<feGaussianBlur stdDeviation="1.53147"/>
<feComposite in2="hardAlpha" operator="arithmetic" k2="-1" k3="1"/>
<feColorMatrix type="matrix" values="0 0 0 0 0.141176 0 0 0 0 0.694118 0 0 0 0 0.454902 0 0 0 1 0"/>
<feBlend mode="lighten" in2="shape" result="effect2_innerShadow_3178_38072"/>
</filter>
<linearGradient id="paint0_linear_3178_38072" x1="-49" y1="280.5" x2="511.716" y2="329.096" gradientUnits="userSpaceOnUse">
<stop stop-color="#061B1A"/>
<stop offset="1"/>
</linearGradient>
<radialGradient id="paint1_radial_3178_38072" cx="0" cy="0" r="1" gradientUnits="userSpaceOnUse" gradientTransform="translate(172.984 114.129) rotate(45) scale(80.9878 80.9878)">
<stop stop-color="#D0E7D3" stop-opacity="0"/>
<stop offset="0.435" stop-color="#50BA63"/>
</radialGradient>
<radialGradient id="paint2_radial_3178_38072" cx="0" cy="0" r="1" gradientUnits="userSpaceOnUse" gradientTransform="translate(4.22442 -0.501894) rotate(137.487) scale(8.71751 10.1491)">
<stop stop-color="#D3D0E7"/>
<stop offset="0.432743" stop-color="#50BA60"/>
<stop offset="0.9" stop-color="#0E2511"/>
</radialGradient>
<radialGradient id="paint3_radial_3178_38072" cx="0" cy="0" r="1" gradientUnits="userSpaceOnUse" gradientTransform="translate(143.188 179.037) rotate(17.4304) scale(5.00143 3.68927)">
<stop stop-color="#D0E7D5"/>
<stop offset="0.432743" stop-color="#50BA6C"/>
<stop offset="0.9" stop-color="#0E2513"/>
</radialGradient>
<radialGradient id="paint4_radial_3178_38072" cx="0" cy="0" r="1" gradientUnits="userSpaceOnUse" gradientTransform="translate(147.777 179.043) rotate(-167.22) scale(3.98 4.6336)">
<stop stop-color="#D3D0E7"/>
<stop offset="0.432743" stop-color="#50BA67"/>
<stop offset="0.9" stop-color="#0E2513"/>
</radialGradient>
<radialGradient id="paint5_radial_3178_38072" cx="0" cy="0" r="1" gradientUnits="userSpaceOnUse" gradientTransform="translate(104.045 133.874) rotate(128.226) scale(8.41725 9.79954)">
<stop stop-color="#D0E7D2"/>
<stop offset="0.432743" stop-color="#50BA60"/>
<stop offset="0.9" stop-color="#0E250F"/>
</radialGradient>
<radialGradient id="paint6_radial_3178_38072" cx="0" cy="0" r="1" gradientUnits="userSpaceOnUse" gradientTransform="translate(306.347 179.186) rotate(128.226) scale(5.57756 6.49351)">
<stop stop-color="#D0E7D2"/>
<stop offset="0.432743" stop-color="#50BA60"/>
<stop offset="0.9" stop-color="#0E250F"/>
</radialGradient>
<clipPath id="clip0_3178_38072">
<rect width="375" height="481" fill="white"/>
</clipPath>
</defs>
</svg>
