<svg width="1615" height="788" viewBox="0 0 1615 788" fill="none" xmlns="http://www.w3.org/2000/svg">
<g clip-path="url(#clip0_3155_31570)">
<g filter="url(#filter0_f_3155_31570)">
<ellipse cx="807.494" cy="407.5" rx="436.494" ry="190.5" fill="url(#paint0_linear_3155_31570)" fill-opacity="0.2"/>
</g>
<g filter="url(#filter1_f_3155_31570)">
<ellipse cx="829.639" cy="548.31" rx="731.639" ry="319.31" fill="url(#paint1_linear_3155_31570)" fill-opacity="0.2"/>
</g>
<g clip-path="url(#clip1_3155_31570)">
<rect x="-105" y="180" width="1844" height="1766" rx="883" fill="url(#paint2_linear_3155_31570)"/>
<rect x="-104" y="181" width="1842" height="1764" rx="882" stroke="url(#paint3_linear_3155_31570)" stroke-opacity="0.15" stroke-width="2"/>
<g opacity="0.2" filter="url(#filter2_f_3155_31570)">
<path d="M817 731C932.428 731 1026 637.427 1026 522C1026 406.572 932.428 313 817 313C701.573 313 608 406.572 608 522C608 637.427 701.573 731 817 731Z" fill="url(#paint4_radial_3155_31570)" fill-opacity="0.4"/>
</g>
<g filter="url(#filter3_f_3155_31570)">
<rect width="18.0652" height="18.0652" transform="matrix(-0.707107 -0.707107 -0.707107 0.707107 601.648 707.773)" fill="url(#paint5_radial_3155_31570)"/>
<path opacity="0.4" d="M595.69 707.773L588.874 694.999L582.059 707.773L588.874 720.547L595.69 707.773Z" fill="#8FD59A"/>
<g filter="url(#filter4_d_3155_31570)">
<path d="M601.601 707.758H576L589.033 720.512L601.601 707.758Z" fill="url(#paint6_radial_3155_31570)"/>
</g>
<path d="M595.689 707.779L588.873 707.779L582.057 707.779L588.873 720.553L595.689 707.779Z" fill="url(#paint7_radial_3155_31570)"/>
<path d="M595.689 707.779L588.873 707.779L582.057 707.779L588.873 720.553L595.689 707.779Z" fill="#8FD59A"/>
</g>
<g filter="url(#filter5_i_3155_31570)">
<path d="M360.365 502.155C358.507 510.526 363.787 518.818 372.158 520.676C380.529 522.534 388.821 517.254 390.679 508.883C392.537 500.513 387.257 492.22 378.886 490.362C370.515 488.504 362.223 493.784 360.365 502.155Z" fill="url(#paint8_radial_3155_31570)"/>
</g>
<g filter="url(#filter6_di_3155_31570)">
<path d="M1350.79 718.608C1349.56 724.155 1353.06 729.65 1358.6 730.881C1364.15 732.112 1369.65 728.614 1370.88 723.067C1372.11 717.52 1368.61 712.025 1363.06 710.794C1357.52 709.563 1352.02 713.062 1350.79 718.608Z" fill="url(#paint9_radial_3155_31570)"/>
</g>
<path d="M76.4142 345.613L75.9214 346.361L76.2859 347.179L75.538 346.686L74.7198 347.051L75.2126 346.303L74.8481 345.485L75.596 345.977L76.4142 345.613Z" fill="white"/>
<path d="M289.09 409.402L288.597 410.15L288.962 410.968L288.214 410.475L287.396 410.84L287.888 410.092L287.524 409.274L288.272 409.766L289.09 409.402Z" fill="white"/>
<path d="M159.09 482.738L158.597 483.486L158.962 484.304L158.214 483.811L157.396 484.176L157.888 483.428L157.524 482.61L158.272 483.102L159.09 482.738Z" fill="white"/>
<path d="M179.09 366.066L178.597 366.814L178.962 367.632L178.214 367.139L177.396 367.504L177.888 366.756L177.524 365.938L178.272 366.43L179.09 366.066Z" fill="white"/>
<path d="M117.981 393.847L117.488 394.595L117.852 395.413L117.104 394.92L116.286 395.285L116.779 394.537L116.415 393.719L117.162 394.212L117.981 393.847Z" fill="white"/>
<path d="M504.645 463.847L504.152 464.595L504.516 465.413L503.768 464.92L502.95 465.285L503.443 464.537L503.079 463.719L503.827 464.212L504.645 463.847Z" fill="white"/>
<path d="M310.201 348.293L309.708 349.04L310.073 349.859L309.325 349.366L308.507 349.73L309 348.982L308.635 348.164L309.383 348.657L310.201 348.293Z" fill="white"/>
<path d="M781.313 412.738L780.82 413.486L781.184 414.304L780.436 413.811L779.618 414.176L780.111 413.428L779.747 412.61L780.494 413.102L781.313 412.738Z" fill="white"/>
<path d="M523.535 594.957L523.042 595.705L523.407 596.523L522.659 596.03L521.841 596.394L522.334 595.646L521.969 594.828L522.717 595.321L523.535 594.957Z" fill="white"/>
<path d="M309.09 507.183L308.597 507.931L308.962 508.749L308.214 508.256L307.396 508.621L307.888 507.873L307.524 507.055L308.272 507.548L309.09 507.183Z" fill="white"/>
<path d="M300.201 679.402L299.708 680.15L300.073 680.968L299.325 680.475L298.507 680.84L299 680.092L298.635 679.274L299.383 679.766L300.201 679.402Z" fill="white"/>
<path d="M964.645 663.847L964.152 664.595L964.516 665.413L963.768 664.92L962.95 665.285L963.443 664.537L963.079 663.719L963.827 664.212L964.645 663.847Z" fill="white"/>
<path d="M1179.09 444.957L1178.6 445.705L1178.96 446.523L1178.21 446.03L1177.4 446.394L1177.89 445.646L1177.52 444.828L1178.27 445.321L1179.09 444.957Z" fill="white"/>
<path d="M1484.64 640.511L1484.15 641.259L1484.52 642.077L1483.77 641.585L1482.95 641.949L1483.44 641.201L1483.08 640.383L1483.83 640.876L1484.64 640.511Z" fill="white"/>
<path d="M944.645 787.183L944.152 787.931L944.516 788.749L943.768 788.256L942.95 788.621L943.443 787.873L943.079 787.055L943.827 787.548L944.645 787.183Z" fill="white"/>
<path d="M642.424 699.402L641.931 700.15L642.296 700.968L641.548 700.475L640.73 700.84L641.222 700.092L640.858 699.274L641.606 699.766L642.424 699.402Z" fill="white"/>
<path d="M143.535 607.183L143.042 607.931L143.407 608.749L142.659 608.256L141.841 608.621L142.334 607.873L141.969 607.055L142.717 607.548L143.535 607.183Z" fill="white"/>
<path d="M501.313 643.847L500.82 644.595L501.184 645.413L500.436 644.92L499.618 645.285L500.111 644.537L499.747 643.719L500.494 644.212L501.313 643.847Z" fill="white"/>
<path d="M1131.31 647.183L1130.82 647.931L1131.18 648.749L1130.44 648.256L1129.62 648.621L1130.11 647.873L1129.75 647.055L1130.49 647.548L1131.31 647.183Z" fill="white"/>
<path d="M657.981 736.066L657.488 736.814L657.852 737.632L657.104 737.139L656.286 737.504L656.779 736.756L656.415 735.938L657.162 736.43L657.981 736.066Z" fill="white"/>
<path d="M899.09 534.957L898.597 535.705L898.962 536.523L898.214 536.03L897.396 536.394L897.888 535.646L897.524 534.828L898.272 535.321L899.09 534.957Z" fill="white"/>
<path d="M155.758 771.628L155.265 772.376L155.63 773.195L154.882 772.702L154.064 773.066L154.556 772.318L154.192 771.5L154.94 771.993L155.758 771.628Z" fill="white"/>
<path d="M767.981 759.402L767.488 760.15L767.852 760.968L767.104 760.475L766.286 760.84L766.779 760.092L766.415 759.274L767.162 759.766L767.981 759.402Z" fill="white"/>
<path d="M1452.42 416.066L1451.93 416.814L1452.3 417.632L1451.55 417.139L1450.73 417.504L1451.22 416.756L1450.86 415.938L1451.61 416.43L1452.42 416.066Z" fill="white"/>
<path d="M1546.86 369.402L1546.37 370.15L1546.74 370.968L1545.99 370.475L1545.17 370.84L1545.66 370.092L1545.3 369.274L1546.05 369.766L1546.86 369.402Z" fill="white"/>
<path d="M1098.17 486.913L1097.18 488.409L1097.91 490.045L1096.42 489.06L1094.78 489.789L1095.77 488.293L1095.04 486.657L1096.53 487.642L1098.17 486.913Z" fill="white"/>
<path d="M839.282 346.913L838.296 348.409L839.025 350.045L837.529 349.06L835.893 349.789L836.878 348.293L836.149 346.657L837.645 347.642L839.282 346.913Z" fill="white"/>
<path d="M597.059 350.249L596.073 351.745L596.802 353.381L595.306 352.396L593.67 353.125L594.656 351.629L593.927 349.992L595.423 350.978L597.059 350.249Z" fill="white"/>
<path d="M1294.84 320.694L1293.85 322.19L1294.58 323.827L1293.08 322.841L1291.45 323.57L1292.43 322.074L1291.7 320.438L1293.2 321.423L1294.84 320.694Z" fill="white"/>
<path d="M81.5042 648.03L80.5185 649.526L81.2476 651.163L79.7517 650.177L78.1154 650.906L79.1011 649.41L78.372 647.774L79.8679 648.759L81.5042 648.03Z" fill="white"/>
<path d="M669.687 -1.03322L668.809 -0.852844L668.488 -0.0165482L668.308 -0.893902L667.472 -1.21467L668.349 -1.39505L668.67 -2.23135L668.85 -1.354L669.687 -1.03322Z" fill="white"/>
<path d="M774.966 194.451L774.089 194.632L773.768 195.468L773.587 194.59L772.751 194.27L773.628 194.089L773.949 193.253L774.13 194.13L774.966 194.451Z" fill="white"/>
<path d="M631.189 154.389L630.311 154.569L629.99 155.405L629.81 154.528L628.974 154.207L629.851 154.027L630.172 153.191L630.352 154.068L631.189 154.389Z" fill="white"/>
<path d="M727.825 86.0293L726.948 86.2097L726.627 87.046L726.447 86.1686L725.61 85.8478L726.488 85.6674L726.809 84.8312L726.989 85.7085L727.825 86.0293Z" fill="white"/>
<path d="M664.972 62.459L664.094 62.6393L663.774 63.4756L663.593 62.5983L662.757 62.2775L663.634 62.0971L663.955 61.2608L664.135 62.1382L664.972 62.459Z" fill="white"/>
<path d="M888.89 385.373L888.012 385.553L887.692 386.39L887.511 385.512L886.675 385.192L887.552 385.011L887.873 384.175L888.053 385.052L888.89 385.373Z" fill="white"/>
<path d="M833.107 166.17L832.229 166.35L831.908 167.187L831.728 166.309L830.892 165.988L831.769 165.808L832.09 164.972L832.27 165.849L833.107 166.17Z" fill="white"/>
<path d="M1120.66 544.865L1119.79 545.046L1119.47 545.882L1119.28 545.005L1118.45 544.684L1119.33 544.503L1119.65 543.667L1119.83 544.544L1120.66 544.865Z" fill="white"/>
<path d="M809.536 491.436L808.659 491.616L808.338 492.452L808.158 491.575L807.321 491.254L808.199 491.074L808.52 490.237L808.7 491.115L809.536 491.436Z" fill="white"/>
<path d="M719.97 277.732L719.092 277.913L718.772 278.749L718.591 277.872L717.755 277.551L718.632 277.371L718.953 276.534L719.134 277.412L719.97 277.732Z" fill="white"/>
<path d="M591.903 393.232L591.026 393.413L590.705 394.249L590.525 393.372L589.689 393.051L590.566 392.871L590.887 392.034L591.067 392.912L591.903 393.232Z" fill="white"/>
<path d="M819.749 649.357L818.872 649.538L818.551 650.374L818.371 649.497L817.534 649.176L818.412 648.996L818.732 648.159L818.913 649.037L819.749 649.357Z" fill="white"/>
<path d="M358.56 782.139L357.682 782.319L357.362 783.155L357.181 782.278L356.345 781.957L357.222 781.777L357.543 780.941L357.723 781.818L358.56 782.139Z" fill="white"/>
<path d="M257.208 501.654L256.331 501.835L256.01 502.671L255.83 501.794L254.993 501.473L255.871 501.292L256.191 500.456L256.372 501.334L257.208 501.654Z" fill="white"/>
<path d="M532.192 231.381L531.315 231.561L530.994 232.398L530.814 231.52L529.978 231.199L530.855 231.019L531.176 230.183L531.356 231.06L532.192 231.381Z" fill="white"/>
<path d="M759.253 510.295L758.376 510.475L758.055 511.312L757.875 510.434L757.038 510.113L757.916 509.933L758.236 509.097L758.417 509.974L759.253 510.295Z" fill="white"/>
<path d="M804.821 686.287L803.944 686.467L803.623 687.304L803.443 686.426L802.607 686.106L803.484 685.925L803.805 685.089L803.985 685.966L804.821 686.287Z" fill="white"/>
<path d="M1117.52 714.568L1116.64 714.749L1116.32 715.585L1116.14 714.708L1115.31 714.387L1116.18 714.207L1116.5 713.37L1116.68 714.248L1117.52 714.568Z" fill="white"/>
<path d="M206.138 612.436L205.26 612.616L204.94 613.452L204.759 612.575L203.923 612.254L204.8 612.074L205.121 611.237L205.301 612.115L206.138 612.436Z" fill="white"/>
<path d="M424.556 356.303L423.678 356.483L423.358 357.319L423.177 356.442L422.341 356.121L423.218 355.941L423.539 355.105L423.719 355.982L424.556 356.303Z" fill="white"/>
<path d="M866.105 780.568L865.227 780.749L864.906 781.585L864.726 780.708L863.89 780.387L864.767 780.207L865.088 779.37L865.268 780.248L866.105 780.568Z" fill="white"/>
<path d="M627.259 767.998L626.382 768.178L626.061 769.015L625.88 768.137L625.044 767.817L625.921 767.636L626.242 766.8L626.423 767.677L627.259 767.998Z" fill="white"/>
<path d="M596.154 577.809L594.4 578.169L593.758 579.842L593.397 578.087L591.725 577.446L593.48 577.085L594.121 575.412L594.482 577.167L596.154 577.809Z" fill="white"/>
<path d="M1208.2 539.316L1206.44 539.677L1205.8 541.35L1205.44 539.595L1203.77 538.953L1205.52 538.593L1206.16 536.92L1206.52 538.675L1208.2 539.316Z" fill="white"/>
<path d="M1034.56 370.394L1032.81 370.755L1032.16 372.428L1031.8 370.673L1030.13 370.032L1031.89 369.671L1032.53 367.998L1032.89 369.753L1034.56 370.394Z" fill="white"/>
<path d="M380.879 596.668L379.124 597.029L378.483 598.701L378.122 596.947L376.449 596.305L378.204 595.944L378.846 594.272L379.207 596.026L380.879 596.668Z" fill="white"/>
<path d="M314.883 437.965L313.128 438.326L312.487 439.998L312.126 438.243L310.453 437.602L312.208 437.241L312.85 435.569L313.21 437.323L314.883 437.965Z" fill="white"/>
<path d="M60.3244 675.238L58.5697 675.599L57.9282 677.272L57.5674 675.517L55.8948 674.875L57.6495 674.515L58.2911 672.842L58.6518 674.597L60.3244 675.238Z" fill="white"/>
<path d="M459.447 216.402L457.693 216.763L457.051 218.436L456.69 216.681L455.018 216.039L456.773 215.679L457.414 214.006L457.775 215.761L459.447 216.402Z" fill="white"/>
<rect width="27.0142" height="27.0142" transform="matrix(-0.707107 -0.707107 -0.707107 0.707107 1100.35 186.102)" fill="url(#paint10_radial_3155_31570)"/>
<path opacity="0.4" d="M1091.44 186.102L1081.25 167L1071.06 186.102L1081.25 205.203L1091.44 186.102Z" fill="#8FD59A"/>
<g filter="url(#filter7_d_3155_31570)">
<path d="M1100.28 186.078H1062L1081.49 205.15L1100.28 186.078Z" fill="url(#paint11_radial_3155_31570)"/>
</g>
<path d="M1091.44 186.108L1081.25 186.108L1071.06 186.108L1081.25 205.21L1091.44 186.108Z" fill="url(#paint12_radial_3155_31570)"/>
<path d="M1091.44 186.108L1081.25 186.108L1071.06 186.108L1081.25 205.21L1091.44 186.108Z" fill="#8FD59A"/>
</g>
</g>
<defs>
<filter id="filter0_f_3155_31570" x="78.3" y="-75.7" width="1458.39" height="966.399" filterUnits="userSpaceOnUse" color-interpolation-filters="sRGB">
<feFlood flood-opacity="0" result="BackgroundImageFix"/>
<feBlend mode="normal" in="SourceGraphic" in2="BackgroundImageFix" result="shape"/>
<feGaussianBlur stdDeviation="146.35" result="effect1_foregroundBlur_3155_31570"/>
</filter>
<filter id="filter1_f_3155_31570" x="-194.7" y="-63.7" width="2048.68" height="1224.02" filterUnits="userSpaceOnUse" color-interpolation-filters="sRGB">
<feFlood flood-opacity="0" result="BackgroundImageFix"/>
<feBlend mode="normal" in="SourceGraphic" in2="BackgroundImageFix" result="shape"/>
<feGaussianBlur stdDeviation="146.35" result="effect1_foregroundBlur_3155_31570"/>
</filter>
<filter id="filter2_f_3155_31570" x="413.513" y="118.513" width="806.974" height="806.974" filterUnits="userSpaceOnUse" color-interpolation-filters="sRGB">
<feFlood flood-opacity="0" result="BackgroundImageFix"/>
<feBlend mode="normal" in="SourceGraphic" in2="BackgroundImageFix" result="shape"/>
<feGaussianBlur stdDeviation="97.2435" result="effect1_foregroundBlur_3155_31570"/>
</filter>
<filter id="filter3_f_3155_31570" x="575" y="694" width="27.6484" height="27.5532" filterUnits="userSpaceOnUse" color-interpolation-filters="sRGB">
<feFlood flood-opacity="0" result="BackgroundImageFix"/>
<feBlend mode="normal" in="SourceGraphic" in2="BackgroundImageFix" result="shape"/>
<feGaussianBlur stdDeviation="0.5" result="effect1_foregroundBlur_3155_31570"/>
</filter>
<filter id="filter4_d_3155_31570" x="571.625" y="707.758" width="35.6782" height="24.5546" filterUnits="userSpaceOnUse" color-interpolation-filters="sRGB">
<feFlood flood-opacity="0" result="BackgroundImageFix"/>
<feColorMatrix in="SourceAlpha" type="matrix" values="0 0 0 0 0 0 0 0 0 0 0 0 0 0 0 0 0 0 127 0" result="hardAlpha"/>
<feOffset dx="0.662935" dy="6.76194"/>
<feGaussianBlur stdDeviation="2.51915"/>
<feComposite in2="hardAlpha" operator="out"/>
<feColorMatrix type="matrix" values="0 0 0 0 0.0117647 0 0 0 0 0.0784314 0 0 0 0 0.160784 0 0 0 0.1 0"/>
<feBlend mode="multiply" in2="BackgroundImageFix" result="effect1_dropShadow_3155_31570"/>
<feBlend mode="normal" in="SourceGraphic" in2="effect1_dropShadow_3155_31570" result="shape"/>
</filter>
<filter id="filter5_i_3155_31570" x="355.028" y="485.301" width="36.0232" height="35.7478" filterUnits="userSpaceOnUse" color-interpolation-filters="sRGB">
<feFlood flood-opacity="0" result="BackgroundImageFix"/>
<feBlend mode="normal" in="SourceGraphic" in2="BackgroundImageFix" result="shape"/>
<feColorMatrix in="SourceAlpha" type="matrix" values="0 0 0 0 0 0 0 0 0 0 0 0 0 0 0 0 0 0 127 0" result="hardAlpha"/>
<feOffset dx="-4.96465" dy="-4.68966"/>
<feGaussianBlur stdDeviation="7.43211"/>
<feComposite in2="hardAlpha" operator="arithmetic" k2="-1" k3="1"/>
<feColorMatrix type="matrix" values="0 0 0 0 0.141176 0 0 0 0 0.694118 0 0 0 0 0.454902 0 0 0 1 0"/>
<feBlend mode="lighten" in2="shape" result="effect1_innerShadow_3155_31570"/>
</filter>
<filter id="filter6_di_3155_31570" x="1345.58" y="705.858" width="29.5447" height="33.2697" filterUnits="userSpaceOnUse" color-interpolation-filters="sRGB">
<feFlood flood-opacity="0" result="BackgroundImageFix"/>
<feColorMatrix in="SourceAlpha" type="matrix" values="0 0 0 0 0 0 0 0 0 0 0 0 0 0 0 0 0 0 127 0" result="hardAlpha"/>
<feOffset dy="4"/>
<feGaussianBlur stdDeviation="2"/>
<feComposite in2="hardAlpha" operator="out"/>
<feColorMatrix type="matrix" values="0 0 0 0 0 0 0 0 0 0 0 0 0 0 0 0 0 0 0.25 0"/>
<feBlend mode="normal" in2="BackgroundImageFix" result="effect1_dropShadow_3155_31570"/>
<feBlend mode="normal" in="SourceGraphic" in2="effect1_dropShadow_3155_31570" result="shape"/>
<feColorMatrix in="SourceAlpha" type="matrix" values="0 0 0 0 0 0 0 0 0 0 0 0 0 0 0 0 0 0 127 0" result="hardAlpha"/>
<feOffset dx="-4.96465" dy="-4.68966"/>
<feGaussianBlur stdDeviation="7.43211"/>
<feComposite in2="hardAlpha" operator="arithmetic" k2="-1" k3="1"/>
<feColorMatrix type="matrix" values="0 0 0 0 0.141176 0 0 0 0 0.694118 0 0 0 0 0.454902 0 0 0 1 0"/>
<feBlend mode="lighten" in2="shape" result="effect2_innerShadow_3155_31570"/>
</filter>
<filter id="filter7_d_3155_31570" x="1057.62" y="186.078" width="48.3598" height="30.8725" filterUnits="userSpaceOnUse" color-interpolation-filters="sRGB">
<feFlood flood-opacity="0" result="BackgroundImageFix"/>
<feColorMatrix in="SourceAlpha" type="matrix" values="0 0 0 0 0 0 0 0 0 0 0 0 0 0 0 0 0 0 127 0" result="hardAlpha"/>
<feOffset dx="0.662935" dy="6.76194"/>
<feGaussianBlur stdDeviation="2.51915"/>
<feComposite in2="hardAlpha" operator="out"/>
<feColorMatrix type="matrix" values="0 0 0 0 0.0117647 0 0 0 0 0.0784314 0 0 0 0 0.160784 0 0 0 0.1 0"/>
<feBlend mode="multiply" in2="BackgroundImageFix" result="effect1_dropShadow_3155_31570"/>
<feBlend mode="normal" in="SourceGraphic" in2="effect1_dropShadow_3155_31570" result="shape"/>
</filter>
<linearGradient id="paint0_linear_3155_31570" x1="807.494" y1="597.999" x2="807.494" y2="217" gradientUnits="userSpaceOnUse">
<stop stop-color="#D8F8DD"/>
<stop offset="1" stop-color="#98EFA2"/>
</linearGradient>
<linearGradient id="paint1_linear_3155_31570" x1="829.639" y1="867.62" x2="829.639" y2="229" gradientUnits="userSpaceOnUse">
<stop stop-color="#D8F8DD"/>
<stop offset="1" stop-color="#98EFA2"/>
</linearGradient>
<linearGradient id="paint2_linear_3155_31570" x1="-105" y1="1063" x2="2039.68" y2="1224.13" gradientUnits="userSpaceOnUse">
<stop stop-color="#061B1A"/>
<stop offset="1"/>
</linearGradient>
<linearGradient id="paint3_linear_3155_31570" x1="817" y1="180" x2="817" y2="771.269" gradientUnits="userSpaceOnUse">
<stop stop-color="white"/>
<stop offset="0.405161" stop-color="#434343"/>
</linearGradient>
<radialGradient id="paint4_radial_3155_31570" cx="0" cy="0" r="1" gradientUnits="userSpaceOnUse" gradientTransform="translate(720.601 396.125) rotate(45) scale(393.029 393.029)">
<stop stop-color="#D0E7D3" stop-opacity="0"/>
<stop offset="0.435" stop-color="#50BA63"/>
</radialGradient>
<radialGradient id="paint5_radial_3155_31570" cx="0" cy="0" r="1" gradientUnits="userSpaceOnUse" gradientTransform="translate(20.5008 -2.43566) rotate(137.487) scale(42.3055 49.253)">
<stop stop-color="#D3D0E7"/>
<stop offset="0.432743" stop-color="#50BA60"/>
<stop offset="0.9" stop-color="#0E2511"/>
</radialGradient>
<radialGradient id="paint6_radial_3155_31570" cx="0" cy="0" r="1" gradientUnits="userSpaceOnUse" gradientTransform="translate(576 711.124) rotate(17.4304) scale(24.2717 17.9038)">
<stop stop-color="#D0E7D5"/>
<stop offset="0.432743" stop-color="#50BA6C"/>
<stop offset="0.9" stop-color="#0E2513"/>
</radialGradient>
<radialGradient id="paint7_radial_3155_31570" cx="0" cy="0" r="1" gradientUnits="userSpaceOnUse" gradientTransform="translate(598.275 711.151) rotate(-167.22) scale(19.3147 22.4866)">
<stop stop-color="#D3D0E7"/>
<stop offset="0.432743" stop-color="#50BA67"/>
<stop offset="0.9" stop-color="#0E2513"/>
</radialGradient>
<radialGradient id="paint8_radial_3155_31570" cx="0" cy="0" r="1" gradientUnits="userSpaceOnUse" gradientTransform="translate(386.041 491.951) rotate(128.226) scale(40.8484 47.5566)">
<stop stop-color="#D0E7D2"/>
<stop offset="0.432743" stop-color="#50BA60"/>
<stop offset="0.9" stop-color="#0E250F"/>
</radialGradient>
<radialGradient id="paint9_radial_3155_31570" cx="0" cy="0" r="1" gradientUnits="userSpaceOnUse" gradientTransform="translate(1367.8 711.847) rotate(128.226) scale(27.0676 31.5126)">
<stop stop-color="#D0E7D2"/>
<stop offset="0.432743" stop-color="#50BA60"/>
<stop offset="0.9" stop-color="#0E250F"/>
</radialGradient>
<radialGradient id="paint10_radial_3155_31570" cx="0" cy="0" r="1" gradientUnits="userSpaceOnUse" gradientTransform="translate(30.6564 -3.64222) rotate(137.487) scale(63.2626 73.6517)">
<stop stop-color="#D3D0E7"/>
<stop offset="0.432743" stop-color="#50BA60"/>
<stop offset="0.9" stop-color="#0E2511"/>
</radialGradient>
<radialGradient id="paint11_radial_3155_31570" cx="0" cy="0" r="1" gradientUnits="userSpaceOnUse" gradientTransform="translate(1062 191.112) rotate(17.4304) scale(36.2952 26.7729)">
<stop stop-color="#D0E7D5"/>
<stop offset="0.432743" stop-color="#50BA6C"/>
<stop offset="0.9" stop-color="#0E2513"/>
</radialGradient>
<radialGradient id="paint12_radial_3155_31570" cx="0" cy="0" r="1" gradientUnits="userSpaceOnUse" gradientTransform="translate(1095.31 191.15) rotate(-167.22) scale(28.8827 33.6259)">
<stop stop-color="#D3D0E7"/>
<stop offset="0.432743" stop-color="#50BA67"/>
<stop offset="0.9" stop-color="#0E2513"/>
</radialGradient>
<clipPath id="clip0_3155_31570">
<rect width="1615" height="788" fill="white"/>
</clipPath>
<clipPath id="clip1_3155_31570">
<rect width="1844" height="908" fill="white" transform="translate(-122 -118)"/>
</clipPath>
</defs>
</svg>
