<svg width="56" height="56" viewBox="0 0 56 56" fill="none" xmlns="http://www.w3.org/2000/svg">
<path d="M16.3438 49.5053H5.161C4.64487 49.5053 4.30078 49.0752 4.30078 48.6451V8.90318C4.30078 8.38705 4.73089 8.04297 5.161 8.04297H16.3438C16.8599 8.04297 17.204 8.47308 17.204 8.90318V48.6451C17.29 49.0752 16.8599 49.5053 16.3438 49.5053ZM6.10723 47.7849H15.5696V9.7634H6.10723V47.7849Z" fill="url(#paint0_linear_2743_27842)"/>
<path d="M12.9896 43.9979H8.51647C8.00034 43.9979 7.65625 43.5678 7.65625 43.0516C7.65625 42.6215 8.08636 42.1914 8.51647 42.1914H13.0756C13.5917 42.1914 13.9358 42.6215 13.9358 43.1376C13.8498 43.6538 13.5057 43.9979 12.9896 43.9979Z" fill="url(#paint1_linear_2743_27842)"/>
<path d="M27.4414 49.5053H16.2587C15.7425 49.5053 15.3984 49.0752 15.3984 48.6451V8.90318C15.3984 8.38705 15.8285 8.04297 16.2587 8.04297H27.4414C27.9576 8.04297 28.3017 8.47308 28.3017 8.90318V48.6451C28.3017 49.0752 27.8716 49.5053 27.4414 49.5053ZM17.1189 47.7849H26.5812V9.7634H17.1189V47.7849Z" fill="url(#paint2_linear_2743_27842)"/>
<path d="M24.0854 43.9979H19.5262C19.0101 43.9979 18.666 43.5678 18.666 43.0516C18.666 42.6215 19.0961 42.1914 19.5262 42.1914H24.0854C24.6015 42.1914 24.9456 42.6215 24.9456 43.1376C24.9456 43.6538 24.5155 43.9979 24.0854 43.9979Z" fill="url(#paint3_linear_2743_27842)"/>
<path d="M40.2587 49.506C39.9146 49.506 39.5705 49.2479 39.3984 48.9038L26.5812 11.3124C26.4092 10.7963 26.6673 10.2802 27.0974 10.1941L37.678 6.58123C38.1081 6.40919 38.6242 6.66725 38.7963 7.09736L51.6135 44.7748C51.7855 45.2049 51.5275 45.721 51.0974 45.8931L40.5167 49.506C40.4307 49.506 40.3447 49.506 40.2587 49.506ZM28.5597 11.5705L40.8608 47.5275L49.807 44.5167L37.4199 8.47371L28.5597 11.5705Z" fill="url(#paint4_linear_2743_27842)"/>
<path d="M41.6337 43.2242C41.1175 43.2242 40.7734 42.794 40.7734 42.3639C40.7734 42.0199 41.0315 41.6758 41.3756 41.5037L45.6767 40.0414C46.1068 39.8693 46.6229 40.1274 46.7949 40.6435C46.967 41.0736 46.7089 41.5897 46.2788 41.7618L41.9777 43.2242C41.8057 43.2242 41.7197 43.2242 41.6337 43.2242Z" fill="url(#paint5_linear_2743_27842)"/>
<defs>
<linearGradient id="paint0_linear_2743_27842" x1="10.7579" y1="49.5053" x2="10.7579" y2="8.04297" gradientUnits="userSpaceOnUse">
<stop stop-color="#D8F8E1"/>
<stop offset="1" stop-color="#98EFAF"/>
</linearGradient>
<linearGradient id="paint1_linear_2743_27842" x1="10.796" y1="43.9979" x2="10.796" y2="42.1914" gradientUnits="userSpaceOnUse">
<stop stop-color="#D8F8E1"/>
<stop offset="1" stop-color="#98EFAF"/>
</linearGradient>
<linearGradient id="paint2_linear_2743_27842" x1="21.8501" y1="49.5053" x2="21.8501" y2="8.04297" gradientUnits="userSpaceOnUse">
<stop stop-color="#D8F8E1"/>
<stop offset="1" stop-color="#98EFAF"/>
</linearGradient>
<linearGradient id="paint3_linear_2743_27842" x1="21.8058" y1="43.9979" x2="21.8058" y2="42.1914" gradientUnits="userSpaceOnUse">
<stop stop-color="#D8F8E1"/>
<stop offset="1" stop-color="#98EFAF"/>
</linearGradient>
<linearGradient id="paint4_linear_2743_27842" x1="39.0974" y1="49.506" x2="39.0974" y2="6.52734" gradientUnits="userSpaceOnUse">
<stop stop-color="#D8F8E1"/>
<stop offset="1" stop-color="#98EFAF"/>
</linearGradient>
<linearGradient id="paint5_linear_2743_27842" x1="43.8111" y1="43.2242" x2="43.8111" y2="39.9883" gradientUnits="userSpaceOnUse">
<stop stop-color="#D8F8E1"/>
<stop offset="1" stop-color="#98EFAF"/>
</linearGradient>
</defs>
</svg>
