<svg width="57" height="56" viewBox="0 0 57 56" fill="none" xmlns="http://www.w3.org/2000/svg">
<path d="M50.6992 41.7109H38.3034C37.8659 41.7109 37.5742 41.4193 37.5013 40.9818C37.4284 40.5443 37.793 40.2526 38.2305 40.1797C38.2305 40.1797 38.2305 40.1797 38.3034 40.1797H50.6992C51.1367 40.1797 51.5013 39.8151 51.5013 39.3776V12.1068C51.5013 11.6693 51.1367 11.3047 50.6992 11.3047H6.65755C6.22005 11.3047 5.85547 11.6693 5.85547 12.1068V39.4505C5.85547 39.888 6.22005 40.2526 6.65755 40.2526H19.0534C19.4909 40.2526 19.7826 40.5443 19.8555 40.9818C19.9284 41.4193 19.5638 41.7109 19.1263 41.7839C19.1263 41.7839 19.1263 41.7839 19.0534 41.7839H6.65755C5.34505 41.7839 4.32422 40.763 4.32422 39.4505V12.1068C4.32422 10.7943 5.34505 9.77344 6.65755 9.77344H50.7721C52.0846 9.77344 53.1055 10.7943 53.1055 12.1068V39.4505C53.0326 40.6901 52.0117 41.7109 50.6992 41.7109Z" fill="url(#paint0_linear_2743_27883)"/>
<path d="M28.6797 39.3763C27.4401 39.3763 26.2734 38.8659 25.3984 38.0638C24.8151 37.4805 24.013 37.1888 23.2109 37.1888C20.6589 37.1888 18.6172 35.1471 18.6172 32.5951C18.6172 31.793 18.3255 30.9909 17.7422 30.4076C15.9193 28.5846 15.9193 25.668 17.7422 23.918C18.3255 23.3346 18.6172 22.5326 18.6172 21.7305C18.6172 19.1784 20.6589 17.1367 23.2109 17.1367C24.013 17.1367 24.8151 16.8451 25.3984 16.2617C27.2214 14.4388 30.138 14.4388 31.888 16.2617C32.4714 16.8451 33.2734 17.1367 34.0755 17.1367C36.6276 17.1367 38.6693 19.1784 38.6693 21.7305C38.6693 22.5326 38.9609 23.3346 39.5443 23.918C41.3672 25.7409 41.3672 28.6576 39.5443 30.4076C38.9609 30.9909 38.6693 31.793 38.6693 32.5951C38.6693 35.1471 36.6276 37.1888 34.0755 37.1888C33.2734 37.1888 32.4714 37.4805 31.888 38.0638C31.0859 38.8659 29.9193 39.3763 28.6797 39.3763ZM28.6797 16.2617C27.8776 16.2617 27.0755 16.5534 26.4922 17.1367C25.6172 18.0117 24.4505 18.5221 23.2109 18.4492C21.5339 18.4492 20.1484 19.8346 20.1484 21.5117C20.1484 22.7513 19.638 23.918 18.8359 24.793C17.5964 26.0326 17.5964 27.9284 18.8359 29.168C19.7109 30.043 20.2214 31.2096 20.1484 32.4492C20.1484 34.1263 21.5339 35.5117 23.2109 35.5117C24.4505 35.5117 25.6172 36.0221 26.4922 36.8242C27.7318 38.0638 29.6276 38.0638 30.8672 36.8242C31.7422 35.9492 32.9089 35.4388 34.1484 35.5117C35.8255 35.5117 37.2109 34.1263 37.2109 32.4492C37.2109 31.2096 37.7214 30.043 38.5234 29.168C39.763 27.9284 39.763 26.0326 38.5234 24.793C37.6484 23.918 37.138 22.7513 37.2109 21.5117C37.2109 19.8346 35.8255 18.4492 34.1484 18.4492C32.9089 18.4492 31.7422 17.9388 30.8672 17.1367C30.2839 16.6263 29.4818 16.2617 28.6797 16.2617Z" fill="url(#paint1_linear_2743_27883)"/>
<path d="M28.6777 34.4922C24.5215 34.4922 21.2402 31.138 21.2402 27.0547C21.2402 22.9714 24.5944 19.6172 28.6777 19.6172C32.7611 19.6172 36.1152 22.9714 36.1152 27.0547C36.1152 31.2109 32.834 34.4922 28.6777 34.4922ZM28.6777 21.1484C25.3965 21.1484 22.6986 23.8464 22.6986 27.1276C22.6986 30.4089 25.3965 33.1068 28.6777 33.1068C31.959 33.1068 34.6569 30.4089 34.6569 27.1276C34.6569 23.7734 31.959 21.1484 28.6777 21.1484Z" fill="url(#paint2_linear_2743_27883)"/>
<path d="M35.095 46.2307C35.0221 46.2307 34.8763 46.2307 34.8034 46.1578L28.7513 43.4599L22.6992 46.1578C22.3346 46.3036 21.8971 46.1578 21.6784 45.7932C21.6055 45.7203 21.6055 45.5744 21.6055 45.5015V36.4599C21.6055 36.0224 21.8971 35.7307 22.3346 35.6578C22.7721 35.5849 23.0638 35.9494 23.1367 36.3869C23.1367 36.3869 23.1367 36.3869 23.1367 36.4599V44.3349L28.4596 41.9286C28.6784 41.8557 28.8971 41.8557 29.043 41.9286L34.3659 44.3349V36.4599C34.3659 36.0224 34.6575 35.7307 35.095 35.6578C35.5325 35.5849 35.8242 35.9494 35.8971 36.3869C35.8971 36.3869 35.8971 36.3869 35.8971 36.4599V45.5015C35.8242 45.8661 35.4596 46.2307 35.095 46.2307Z" fill="url(#paint3_linear_2743_27883)"/>
<defs>
<linearGradient id="paint0_linear_2743_27883" x1="28.7148" y1="41.7839" x2="28.7148" y2="9.77344" gradientUnits="userSpaceOnUse">
<stop stop-color="#D8F8E1"/>
<stop offset="1" stop-color="#98EFAF"/>
</linearGradient>
<linearGradient id="paint1_linear_2743_27883" x1="28.6432" y1="39.3763" x2="28.6432" y2="14.8945" gradientUnits="userSpaceOnUse">
<stop stop-color="#D8F8E1"/>
<stop offset="1" stop-color="#98EFAF"/>
</linearGradient>
<linearGradient id="paint2_linear_2743_27883" x1="28.6777" y1="34.4922" x2="28.6777" y2="19.6172" gradientUnits="userSpaceOnUse">
<stop stop-color="#D8F8E1"/>
<stop offset="1" stop-color="#98EFAF"/>
</linearGradient>
<linearGradient id="paint3_linear_2743_27883" x1="28.7513" y1="46.2307" x2="28.7513" y2="35.6484" gradientUnits="userSpaceOnUse">
<stop stop-color="#D8F8E1"/>
<stop offset="1" stop-color="#98EFAF"/>
</linearGradient>
</defs>
</svg>
