<svg width="57" height="56" viewBox="0 0 57 56" fill="none" xmlns="http://www.w3.org/2000/svg">
<path d="M28.1722 39.8462C27.9458 39.8462 27.7949 39.7707 27.6439 39.6198L25.3798 37.0537C25.2288 36.8273 25.1534 36.6009 25.2288 36.299L27.493 31.0915C27.6439 30.7141 28.0213 30.5631 28.3986 30.7141C28.5496 30.7896 28.7005 30.9405 28.776 31.0915L31.0401 36.299C31.1156 36.5254 31.1156 36.8273 30.8892 37.0537L28.6251 39.6198C28.5496 39.7707 28.3986 39.8462 28.1722 39.8462ZM26.7383 36.4499L28.1722 38.1103L29.6062 36.4499L28.1722 33.1292L26.7383 36.4499Z" fill="url(#paint0_linear_2743_27868)"/>
<path d="M13.3062 40.0756C12.9288 40.0756 12.627 39.7737 12.627 39.3964V39.3209L13.4571 33.736C13.759 31.3964 15.5703 29.5851 17.91 29.2077L24.0987 28.2266C24.2496 28.2266 24.4005 28.2266 24.5515 28.302L28.1741 30.3398L31.7968 28.302C31.9477 28.2266 32.0987 28.2266 32.2496 28.2266L38.4383 29.2077C40.7779 29.5851 42.5892 31.3964 42.8911 33.736L43.7213 39.3209C43.7968 39.6983 43.4949 40.0756 43.1175 40.0756C42.7402 40.1511 42.3628 39.8492 42.3628 39.4718L41.5326 33.8869C41.3062 32.1511 39.9477 30.7926 38.2119 30.5662L32.2496 29.5851L28.476 31.6983C28.2496 31.8492 28.0232 31.8492 27.7968 31.6983L24.0232 29.5851L18.0609 30.5662C16.3251 30.8681 15.042 32.2266 14.7402 33.8869L13.91 39.4718C13.9854 39.8492 13.6836 40.0756 13.3062 40.0756Z" fill="url(#paint1_linear_2743_27868)"/>
<path d="M24.1734 29.5834C23.796 29.5834 23.4941 29.2815 23.4941 28.9042C23.4941 28.8287 23.4941 28.7532 23.5696 28.6023L24.1734 27.2438C24.3243 26.8664 24.7017 26.7155 25.079 26.8664C25.4564 27.0174 25.6073 27.3947 25.4564 27.7721L24.8526 29.1306C24.7017 29.357 24.4753 29.5834 24.1734 29.5834Z" fill="url(#paint2_linear_2743_27868)"/>
<path d="M32.1755 29.5834C31.8737 29.5834 31.6472 29.4325 31.5718 29.1306L30.968 27.7721C30.8171 27.3947 30.968 27.0174 31.3454 26.8664C31.7227 26.7155 32.1001 26.8664 32.251 27.2438L32.8548 28.6023C33.0057 28.9796 32.8548 29.357 32.4774 29.5079C32.3265 29.5079 32.251 29.5834 32.1755 29.5834Z" fill="url(#paint3_linear_2743_27868)"/>
<path d="M28.1745 27.0932C24.9292 27.0932 22.967 24.1498 22.2123 21.5838C21.6085 21.2064 21.2311 20.4517 21.2311 19.7725L21.1557 18.8668C21.0047 18.1121 21.3066 17.3574 21.9104 16.9046C21.9104 15.6215 21.9858 12.0744 23.8726 11.1687C23.8726 11.1687 23.8726 11.1687 23.8726 11.0932C24.1745 10.4895 24.6274 10.1121 26.1368 9.96116C28.0236 9.73474 30.6651 10.1121 32.099 11.2442L32.1745 11.3196C33.0047 11.9989 34.5141 13.2064 34.4387 16.9046C35.0424 17.3574 35.2689 18.1121 35.1934 18.8668L35.1179 19.7725C35.1179 20.5272 34.816 21.2064 34.2123 21.5838C33.4575 24.3008 31.4953 27.0932 28.1745 27.0932ZM27.2689 11.2442C26.967 11.2442 26.6651 11.2442 26.3632 11.3196C25.3066 11.4706 25.2311 11.6215 25.1557 11.697C25.0047 11.9989 24.7783 12.2253 24.4764 12.3762C23.3443 12.9046 23.1934 15.8479 23.2689 17.2064C23.2689 17.5083 23.1179 17.8102 22.816 17.8857C22.6651 17.9612 22.4387 18.0366 22.5141 18.7159L22.5896 19.6215C22.6651 20.2253 22.7406 20.3008 22.967 20.3762C23.1934 20.4517 23.3443 20.6027 23.4198 20.8291C24.0236 23.0178 25.6085 25.6593 28.1745 25.6593C31.4953 25.6593 32.7028 21.9612 32.9292 20.8291C33.0047 20.6027 33.1557 20.3762 33.3821 20.3008C33.6085 20.2253 33.684 20.1498 33.7594 19.5461L33.8349 18.6404C33.9104 17.9612 33.684 17.8857 33.533 17.8102C33.2311 17.7347 33.0802 17.4329 33.0802 17.131C33.2311 13.8102 32.0236 12.8291 31.2689 12.2253L31.1934 12.1498C30.0613 11.5461 28.6274 11.2442 27.2689 11.2442Z" fill="url(#paint4_linear_2743_27868)"/>
<path d="M33.532 15.395C33.2301 15.395 32.9282 15.1686 32.8527 14.8667C32.7773 14.6403 32.6263 14.4138 32.4754 14.3384C31.7207 13.8855 29.9848 14.0365 27.9471 14.7157C25.9848 15.3195 24.4754 15.3195 23.5697 14.5648C22.9659 14.112 22.6641 13.5082 22.6641 12.7535C22.6641 12.3761 22.966 12.0742 23.3433 12.0742C23.7207 12.0742 24.0226 12.3761 24.0226 12.7535C24.0226 13.0554 24.1735 13.2818 24.3999 13.4327C24.7018 13.6591 25.532 13.961 27.5697 13.3572C29.381 12.8289 31.7961 12.3006 33.2301 13.1308C33.7584 13.4327 34.1358 13.961 34.2867 14.5648C34.3622 14.9421 34.1358 15.3195 33.7584 15.395C33.6829 15.395 33.6075 15.395 33.532 15.395Z" fill="url(#paint5_linear_2743_27868)"/>
<path d="M48.1753 42.8679H8.17534C7.79798 42.8679 7.49609 42.566 7.49609 42.1887V19.0943C7.49609 17.434 8.85458 16.0755 10.5904 16H19.4206C19.798 16 20.0999 16.3019 20.0999 16.7547C20.0999 17.1321 19.798 17.434 19.4206 17.434H10.5904C9.68477 17.434 8.93006 18.1887 8.93006 19.0943V41.5094H47.4961V19.0943C47.4961 18.1887 46.7414 17.434 45.8357 17.434H36.9301C36.5527 17.434 36.2508 17.1321 36.2508 16.6792C36.2508 16.3019 36.5527 16 36.9301 16H45.7602C47.4206 16 48.7791 17.3585 48.8546 19.0943V42.1887C48.8546 42.566 48.5527 42.8679 48.1753 42.8679Z" fill="url(#paint6_linear_2743_27868)"/>
<path d="M49.6835 46.1128H6.66465C5.00427 46.1128 3.64578 44.7544 3.57031 43.0185V42.1128C3.57031 41.7355 3.8722 41.4336 4.24956 41.4336H52.0231C52.4005 41.4336 52.7024 41.7355 52.7024 42.1128V43.0185C52.7779 44.7544 51.4194 46.1128 49.6835 46.1128ZM4.9288 42.8676V43.0185C4.9288 43.9242 5.68352 44.6789 6.58918 44.6789H49.6835C50.5892 44.6789 51.3439 43.9242 51.3439 43.0185V42.8676H4.9288Z" fill="url(#paint7_linear_2743_27868)"/>
<defs>
<linearGradient id="paint0_linear_2743_27868" x1="28.1423" y1="39.8462" x2="28.1423" y2="30.6562" gradientUnits="userSpaceOnUse">
<stop stop-color="#D8F8E1"/>
<stop offset="1" stop-color="#98EFAF"/>
</linearGradient>
<linearGradient id="paint1_linear_2743_27868" x1="28.1799" y1="40.0873" x2="28.1799" y2="28.2266" gradientUnits="userSpaceOnUse">
<stop stop-color="#D8F8E1"/>
<stop offset="1" stop-color="#98EFAF"/>
</linearGradient>
<linearGradient id="paint2_linear_2743_27868" x1="24.5042" y1="29.5834" x2="24.5042" y2="26.8086" gradientUnits="userSpaceOnUse">
<stop stop-color="#D8F8E1"/>
<stop offset="1" stop-color="#98EFAF"/>
</linearGradient>
<linearGradient id="paint3_linear_2743_27868" x1="31.9114" y1="29.5834" x2="31.9114" y2="26.8086" gradientUnits="userSpaceOnUse">
<stop stop-color="#D8F8E1"/>
<stop offset="1" stop-color="#98EFAF"/>
</linearGradient>
<linearGradient id="paint4_linear_2743_27868" x1="28.1623" y1="27.0932" x2="28.1623" y2="9.89844" gradientUnits="userSpaceOnUse">
<stop stop-color="#D8F8E1"/>
<stop offset="1" stop-color="#98EFAF"/>
</linearGradient>
<linearGradient id="paint5_linear_2743_27868" x1="28.4826" y1="15.395" x2="28.4826" y2="12.0742" gradientUnits="userSpaceOnUse">
<stop stop-color="#D8F8E1"/>
<stop offset="1" stop-color="#98EFAF"/>
</linearGradient>
<linearGradient id="paint6_linear_2743_27868" x1="28.1753" y1="42.8679" x2="28.1753" y2="16" gradientUnits="userSpaceOnUse">
<stop stop-color="#D8F8E1"/>
<stop offset="1" stop-color="#98EFAF"/>
</linearGradient>
<linearGradient id="paint7_linear_2743_27868" x1="28.1378" y1="46.1128" x2="28.1378" y2="41.4336" gradientUnits="userSpaceOnUse">
<stop stop-color="#D8F8E1"/>
<stop offset="1" stop-color="#98EFAF"/>
</linearGradient>
</defs>
</svg>
