<svg width="57" height="56" viewBox="0 0 57 56" fill="none" xmlns="http://www.w3.org/2000/svg">
<path d="M40.0998 16.2299H16.5609C15.9914 16.2299 15.5168 15.7553 15.4219 15.1859C15.4219 14.6164 15.8965 14.1418 16.4659 14.0469C16.4659 14.0469 16.4659 14.0469 16.5609 14.0469H40.1948C40.7642 14.0469 41.2388 14.5215 41.3337 15.0909C41.2388 15.7553 40.7642 16.2299 40.0998 16.2299C40.1948 16.2299 40.1948 16.2299 40.0998 16.2299Z" fill="url(#paint0_linear_2743_27855)"/>
<path d="M40.0998 21.9252H16.5609C15.9914 21.9252 15.5168 21.4507 15.4219 20.8812C15.4219 20.3117 15.8965 19.8371 16.4659 19.7422C16.4659 19.7422 16.4659 19.7422 16.5609 19.7422H40.1948C40.7642 19.7422 41.2388 20.2168 41.3337 20.7863C41.2388 21.4507 40.7642 21.9252 40.0998 21.9252C40.1948 21.9252 40.1948 21.9252 40.0998 21.9252Z" fill="url(#paint1_linear_2743_27855)"/>
<path d="M28.3303 27.7143H16.5609C15.9914 27.7143 15.5168 27.2397 15.4219 26.6702C15.4219 26.1007 15.8965 25.6262 16.4659 25.5312C16.4659 25.5312 16.4659 25.5312 16.5609 25.5312H28.3303C28.8998 25.5312 29.3744 26.0058 29.4693 26.5753C29.4693 27.1448 28.9948 27.6194 28.3303 27.7143Z" fill="url(#paint2_linear_2743_27855)"/>
<path d="M46.7446 51.7288C46.5548 51.7288 46.365 51.7288 46.27 51.6339L39.9107 48.3119L33.5514 51.6339C32.9819 51.9186 32.4124 51.7288 32.1277 51.1593C32.0327 50.9695 31.9378 50.6847 32.0328 50.4949L33.2666 43.3763L27.8565 38.2508C27.4768 37.8712 27.3819 37.1119 27.8565 36.7322C28.0463 36.5424 28.2361 36.4475 28.426 36.4475L35.5446 35.4034L38.7717 28.9491C39.0565 28.3797 39.7209 28.1898 40.1955 28.4746C40.3853 28.5695 40.5751 28.7593 40.67 28.9491L43.8972 35.4034L51.0158 36.4475C51.5853 36.5424 51.965 37.1119 51.965 37.6814C51.965 37.8712 51.7751 38.1559 51.6802 38.2508L46.4599 43.2813L47.6938 50.4C47.7887 50.9695 47.409 51.539 46.8395 51.6339C46.8395 51.7288 46.7446 51.7288 46.7446 51.7288ZM30.9887 38.2508L34.9751 42.1424C35.2599 42.4271 35.3548 42.7119 35.2599 43.0915L34.3107 48.5966L39.2463 45.939C39.5311 45.7491 39.9107 45.7491 40.2904 45.939L45.226 48.5966L44.2768 43.0915C44.1819 42.7119 44.3717 42.4271 44.5616 42.1424L48.548 38.2508L42.948 37.3966C42.5683 37.3017 42.2836 37.1119 42.0938 36.8271L39.626 31.7966L37.348 36.922C37.1582 37.2068 36.8734 37.4915 36.4938 37.4915L30.9887 38.2508Z" fill="url(#paint3_linear_2743_27855)"/>
<path d="M17.6057 51.7283C17.1312 51.7283 16.7515 51.4436 16.6566 51.0639L12.3854 40.6232C8.0193 40.3385 4.69727 36.7317 4.69727 32.3656V12.4334C4.69727 7.87748 8.39896 4.17578 12.9549 4.17578H43.9922C48.5481 4.17578 52.2498 7.87748 52.2498 12.4334V32.6504C52.2498 33.2199 51.7752 33.6944 51.2057 33.7893C50.6362 33.7893 50.1617 33.3148 50.0668 32.7453C50.0668 32.7453 50.0668 32.7453 50.0668 32.6504V12.5283C50.0668 9.20629 47.3142 6.45375 43.9922 6.45375H12.86C9.53794 6.45375 6.7854 9.20629 6.7854 12.5283V32.4605C6.7854 35.7826 9.53794 38.5351 12.86 38.5351H13.0498C13.5244 38.5351 13.904 38.8198 13.999 39.1995L17.5108 47.8368L21.0227 39.1995C21.2125 38.8198 21.5922 38.5351 21.9718 38.5351H23.7752C24.3447 38.5351 24.8193 39.0097 24.9142 39.5792C24.9142 40.1487 24.4396 40.6232 23.8701 40.7182C23.8701 40.7182 23.8701 40.7182 23.7752 40.7182H22.6362L18.3651 51.0639C18.3651 51.4436 17.9854 51.7283 17.6057 51.7283Z" fill="url(#paint4_linear_2743_27855)"/>
<defs>
<linearGradient id="paint0_linear_2743_27855" x1="28.3778" y1="16.2299" x2="28.3778" y2="14.0469" gradientUnits="userSpaceOnUse">
<stop stop-color="#D8F8E1"/>
<stop offset="1" stop-color="#98EFAF"/>
</linearGradient>
<linearGradient id="paint1_linear_2743_27855" x1="28.3778" y1="21.9252" x2="28.3778" y2="19.7422" gradientUnits="userSpaceOnUse">
<stop stop-color="#D8F8E1"/>
<stop offset="1" stop-color="#98EFAF"/>
</linearGradient>
<linearGradient id="paint2_linear_2743_27855" x1="22.4456" y1="27.7143" x2="22.4456" y2="25.5312" gradientUnits="userSpaceOnUse">
<stop stop-color="#D8F8E1"/>
<stop offset="1" stop-color="#98EFAF"/>
</linearGradient>
<linearGradient id="paint3_linear_2743_27855" x1="39.7501" y1="51.7647" x2="39.7501" y2="28.3438" gradientUnits="userSpaceOnUse">
<stop stop-color="#D8F8E1"/>
<stop offset="1" stop-color="#98EFAF"/>
</linearGradient>
<linearGradient id="paint4_linear_2743_27855" x1="28.4735" y1="51.7283" x2="28.4735" y2="4.17578" gradientUnits="userSpaceOnUse">
<stop stop-color="#D8F8E1"/>
<stop offset="1" stop-color="#98EFAF"/>
</linearGradient>
</defs>
</svg>
