<svg width="184" height="50" viewBox="0 0 184 50" fill="none" xmlns="http://www.w3.org/2000/svg">
<path d="M23.9692 11.1836C17.8769 11.1836 14 16.1682 14 21.8451C14 28.2144 18.5 32.4374 24.6615 32.4374C27.8462 32.4374 31.1 31.1913 33.0385 28.8374L29.9923 25.6528C29.0231 26.6913 27.1538 28.0067 24.8 28.0067C21.8923 28.0067 19.6077 25.999 19.3308 23.1605H33.3846C33.4538 22.7451 33.5231 22.1913 33.5231 21.6374C33.5231 15.9605 29.5769 11.1836 23.9692 11.1836ZM19.6077 19.2144C19.8154 17.3451 21.6846 15.6836 23.9692 15.6836C26.2538 15.6836 27.8462 17.4836 27.9846 19.2144H19.6077Z" fill="#E42127"/>
<path d="M47.5077 11.1133C45.2231 11.1133 43.2846 11.9441 41.7615 13.1902V11.5979H36.5V32.021H41.9692V18.7979C42.7308 17.7594 44.5308 16.3056 46.8846 16.3056C48.1308 16.3056 49.2385 16.721 49.9308 17.4133C50.6923 18.1748 51.1077 19.2133 51.1077 21.221V32.021H56.5769V21.6364C56.5769 18.1056 55.8154 16.0287 54.5 14.4364C52.9077 12.4287 50.3462 11.1133 47.5077 11.1133Z" fill="#E42127"/>
<path d="M104.623 13.3308C103.031 11.9462 101.023 11.2539 98.6693 11.2539C93.0616 11.2539 88.6309 15.8924 88.6309 21.9154C88.6309 24.7539 89.6001 27.2462 91.1924 29.1154C92.9924 31.1924 95.8309 32.577 98.877 32.577C100.885 32.577 102.823 31.9539 104.554 30.5001V32.0924H109.815H109.885V11.6693H104.623V13.3308ZM104.277 24.9616C103.239 26.4154 101.439 27.4539 99.3616 27.4539C96.3155 27.4539 93.9616 25.1001 93.9616 21.8462C93.9616 18.9385 95.9693 16.2385 99.2232 16.2385C101.439 16.2385 103.169 17.2078 104.277 18.7308V24.9616Z" fill="#E42127"/>
<path d="M143.738 11.6693V13.3308C142.146 11.9462 140.138 11.2539 137.785 11.2539C132.177 11.2539 127.746 15.8924 127.746 21.9154C127.746 24.7539 128.715 27.2462 130.308 29.1154C132.108 31.1924 134.946 32.577 137.992 32.577C140 32.577 141.938 31.9539 143.669 30.5001V32.0924H148.931H149V11.6693H143.738ZM143.461 24.9616C142.423 26.4154 140.623 27.4539 138.546 27.4539C135.5 27.4539 133.146 25.1001 133.146 21.8462C133.146 18.9385 135.154 16.2385 138.408 16.2385C140.623 16.2385 142.354 17.2078 143.461 18.7308V24.9616Z" fill="#E42127"/>
<path d="M88.2156 11.3924C87.6617 11.3231 87.1771 11.2539 86.3463 11.2539C83.9233 11.2539 81.6387 12.2231 80.4617 13.7462V11.6693H75.2002V32.0231H80.6694V19.1462C81.2925 17.9693 83.1617 16.2385 85.5848 16.2385C86.4156 16.2385 87.1771 16.3078 87.5925 16.4462L88.2156 16.5847V11.3231L88.0771 11.4616L88.2156 11.3924Z" fill="#E42127"/>
<path d="M65.5073 5.92188H60.0381V26.7603H65.5073V16.168H72.2227V11.5988H65.5073V5.92188Z" fill="#E42127"/>
<path d="M70.7694 26.7617H65.5078V32.0233H70.7694V26.7617Z" fill="#E42127"/>
<path d="M119.3 11.5988V5.92188H113.831C113.831 5.92188 113.831 26.6219 113.831 26.8296H119.231V16.2373H125.946V11.668H119.3V11.5988Z" fill="#E42127"/>
<path d="M124.561 26.7617H119.3V32.0233H124.561V26.7617Z" fill="#E42127"/>
</svg>
