<svg width="177" height="50" viewBox="0 0 177 50" fill="none" xmlns="http://www.w3.org/2000/svg">
<path d="M89.6958 0C99.8439 0 108.266 13.9508 108.24 26.2771C108.242 29.3938 107.629 32.4802 106.437 35.3598C105.245 38.2394 103.497 40.8558 101.293 43.0591C99.0885 45.2625 96.4715 47.0096 93.5914 48.2006C90.7113 49.3916 87.6247 50.0031 84.508 50C70.6793 50 60.7852 40.845 60.7852 28.9414C60.7852 19.0617 67.1468 18.4531 75.4826 12.5775C85.0412 5.84252 83.0084 0 89.6958 0Z" fill="url(#paint0_linear_2625_25036)"/>
<path d="M40.615 20.9784C42.2476 22.3113 43.3235 24.206 43.6316 26.291H39.4327C39.2489 25.1732 38.6482 24.1666 37.7518 23.4739C36.7826 22.7664 35.6036 22.4053 34.4044 22.4487C33.6902 22.4312 32.9804 22.566 32.3223 22.8441C31.6642 23.1222 31.0729 23.5372 30.5876 24.0616C29.5677 25.139 29.0591 26.7184 29.0619 28.7996C29.0647 30.8809 29.5733 32.4654 30.5876 33.553C31.0702 34.082 31.6606 34.5013 32.319 34.7827C32.9774 35.0641 33.6885 35.201 34.4044 35.1841C35.6059 35.228 36.7865 34.8613 37.7518 34.1444C38.6481 33.4395 39.2478 32.4245 39.4327 31.2994H43.6302C43.324 33.3925 42.2491 35.2965 40.615 36.64C38.9955 37.9576 36.9485 38.6164 34.4743 38.6164C32.7645 38.6522 31.0742 38.248 29.5657 37.4425C28.144 36.6565 26.9811 35.4747 26.2182 34.0405C25.3762 32.4245 24.9582 30.6212 25.0033 28.7996C24.9609 26.9911 25.3778 25.2015 26.215 23.5979C26.9768 22.1613 28.1398 20.9771 29.5624 20.1894C31.0721 19.3854 32.7628 18.9821 34.4729 19.0178C36.9471 19.0178 38.9945 19.6713 40.615 20.9784Z" fill="black"/>
<path d="M72.2144 12.7031H68.2588V38.3721H72.2144V12.7031Z" fill="black"/>
<path d="M93.7198 23.5976C92.9248 22.1481 91.7227 20.9632 90.2619 20.1892C88.7194 19.3916 87.0033 18.9889 85.267 19.0171C83.5363 18.9878 81.8256 19.3914 80.2904 20.191C78.8311 20.9682 77.6266 22.1493 76.8209 23.593C75.9503 25.186 75.514 26.9799 75.5556 28.7947C75.5128 30.6153 75.9491 32.4153 76.8209 34.0142C77.6233 35.4644 78.8283 36.6514 80.2904 37.432C81.8253 38.2326 83.5362 38.6362 85.267 38.6059C87.0037 38.6347 88.7203 38.2313 90.2623 37.432C91.7209 36.6623 92.9227 35.4833 93.7202 34.0398C94.5842 32.4325 95.0145 30.6278 94.9687 28.8036C95.0111 26.9893 94.5807 25.1952 93.7198 23.5976ZM90.1314 32.337C89.6645 33.2283 88.9462 33.9628 88.0655 34.4494C87.1992 34.9043 86.2353 35.1419 85.2568 35.1419C84.2783 35.1419 83.3144 34.9043 82.4481 34.4494C81.5674 33.9628 80.849 33.2283 80.3822 32.337C79.8268 31.2429 79.5587 30.0256 79.603 28.7994C79.5652 27.579 79.833 26.3686 80.3822 25.2781C80.8452 24.3785 81.564 23.6361 82.4481 23.1442C83.3144 22.6894 84.2783 22.4517 85.2568 22.4517C86.2353 22.4517 87.1992 22.6894 88.0655 23.1442C88.9496 23.6361 89.6684 24.3785 90.1314 25.2781C90.6806 26.3686 90.9484 27.579 90.9106 28.7994C90.953 30.0256 90.6848 31.2426 90.1309 32.3374L90.1314 32.337Z" fill="black"/>
<path d="M120.379 12.045C120.881 11.5913 121.541 11.3542 122.217 11.3856C122.895 11.3586 123.557 11.5949 124.064 12.045C124.294 12.2554 124.476 12.5131 124.598 12.8002C124.719 13.0874 124.778 13.3974 124.768 13.7092C124.779 14.0162 124.722 14.3219 124.6 14.6041C124.478 14.8862 124.295 15.1376 124.064 15.3402C123.547 15.769 122.888 15.9907 122.217 15.9624C121.547 15.9944 120.89 15.7712 120.379 15.3379C120.149 15.1343 119.967 14.8826 119.845 14.6007C119.724 14.3189 119.665 14.0137 119.675 13.7068C119.668 13.3958 119.727 13.0868 119.848 12.8003C119.97 12.5138 120.151 12.2563 120.379 12.045Z" fill="black"/>
<path d="M124.196 19.2578H120.24V38.3703H124.196V19.2578Z" fill="black"/>
<path d="M64.8738 28.7995C64.9173 26.9909 64.5004 25.201 63.6621 23.5978C62.9003 22.1612 61.7373 20.977 60.3147 20.1893C58.7936 19.4177 57.112 19.0156 55.4063 19.0156C53.7007 19.0156 52.0191 19.4177 50.4979 20.1893C49.0763 20.9752 47.9134 22.1571 47.1505 23.5913C46.3108 25.1939 45.8938 26.9843 45.9388 28.793C45.9006 30.6153 46.317 32.4185 47.1505 34.0395C47.9134 35.4737 49.0763 36.6555 50.4979 37.4414C52.0191 38.213 53.7007 38.6151 55.4063 38.6151C57.112 38.6151 58.7936 38.213 60.3147 37.4414C61.7364 36.6555 62.8993 35.4737 63.6621 34.0395C64.059 33.3075 64.3568 32.5259 64.5476 31.7154H60.6838C60.4593 32.5742 60.0029 33.3547 59.3645 33.9714C58.2695 34.9224 56.8587 35.4296 55.4089 35.3937C53.958 35.4363 52.5448 34.9282 51.4533 33.9714C50.4346 33.0184 49.8944 31.5654 49.8222 29.6006H64.8458C64.8663 29.3443 64.8738 29.0698 64.8738 28.7995ZM49.9145 26.8511C50.053 25.6128 50.6201 24.462 51.5176 23.5978C52.6037 22.6793 53.9801 22.1753 55.4026 22.1753C56.825 22.1753 58.2015 22.6793 59.2876 23.5978C60.1863 24.4612 60.7536 25.6125 60.8907 26.8511H49.9145Z" fill="black"/>
<path d="M114.088 21.0483C115.433 22.4865 116.106 24.5388 116.106 27.2054V38.3722H112.141V27.6234C112.141 25.9019 111.701 24.5718 110.82 23.6329C110.351 23.155 109.785 22.7823 109.161 22.5395C108.537 22.2967 107.869 22.1893 107.2 22.2246C106.497 22.1938 105.796 22.3126 105.142 22.5732C104.489 22.8338 103.898 23.2303 103.409 23.7363C102.457 24.7442 101.983 26.223 101.984 28.1729V38.3652H98.0195V19.3049H101.984V22.7535C102.645 21.5512 103.624 20.5544 104.814 19.8727C106.005 19.191 107.36 18.8509 108.731 18.8897C110.959 18.8906 112.745 19.6102 114.088 21.0483Z" fill="black"/>
<path d="M143.52 24.8373H139.666C139.666 22.8115 137.626 21.8324 135.567 21.8324C133.989 21.8324 132.182 22.6516 132.182 24.1797C132.182 25.7689 133.893 26.2922 137.001 27.187C141.064 28.3464 143.996 29.3726 143.996 33.208C143.996 36.7712 139.9 38.5556 135.999 38.5556C131.264 38.5556 127.267 36.1565 127.267 32.1636H131.311C131.404 34.2929 133.893 35.4053 135.891 35.4053C137.957 35.4053 140.21 34.7948 140.21 33.0696C140.21 31.0694 138.539 30.7222 135.223 29.7198C131.061 28.4615 128.209 27.708 128.209 24.2268C128.209 20.7456 131.924 18.875 135.71 18.875C140.436 18.889 143.52 21.4432 143.52 24.8373Z" fill="black"/>
<defs>
<linearGradient id="paint0_linear_2625_25036" x1="61.9241" y1="20.7" x2="108.271" y2="28.0614" gradientUnits="userSpaceOnUse">
<stop stop-color="#FF0000"/>
<stop offset="0.18" stop-color="#FF0400"/>
<stop offset="0.37" stop-color="#FF1100"/>
<stop offset="0.57" stop-color="#FF2500"/>
<stop offset="0.76" stop-color="#FF4200"/>
<stop offset="0.96" stop-color="#FF6700"/>
<stop offset="1" stop-color="#FF7000"/>
</linearGradient>
</defs>
</svg>
