<svg width="184" height="50" viewBox="0 0 184 50" fill="none" xmlns="http://www.w3.org/2000/svg">
<path fill-rule="evenodd" clip-rule="evenodd" d="M55.6215 33.1696C55.0948 32.9689 54.75 32.5437 54.75 31.9769C54.75 31.2907 55.3168 30.7251 56.0065 30.7251C56.2096 30.7251 56.3726 30.7652 56.5143 30.8254C57.4549 31.2591 58.4794 31.4801 59.5151 31.4726C61.6255 31.4726 62.6187 30.4629 62.6187 28.5214V27.9959C61.7058 29.0883 60.7126 29.7555 59.0699 29.7555C56.5344 29.7555 54.2422 27.9156 54.2422 24.701V24.6621C54.2422 21.4275 56.5746 19.6088 59.0699 19.6088C60.7528 19.6088 61.7459 20.3174 62.5773 21.2267V21.2054C62.5773 20.3764 63.267 19.6903 64.1196 19.6903C64.9699 19.6903 65.6596 20.3764 65.6596 21.2255V28.199C65.6596 30.1393 65.1943 31.5529 64.2814 32.4622C63.267 33.4743 61.7058 33.9183 59.5966 33.9183C58.2354 33.9303 56.8851 33.6759 55.6215 33.1696ZM62.6187 24.7022V24.6621C62.6187 23.1859 61.4613 22.1549 59.9615 22.1549C58.4617 22.1549 57.3256 23.1859 57.3256 24.6621V24.7022C57.3256 26.1973 58.4617 27.2082 59.9615 27.2082C61.4613 27.2082 62.6187 26.1772 62.6187 24.7022ZM67.405 21.2255C67.405 20.3764 68.0947 19.6903 68.9462 19.6903C69.7988 19.6903 70.4873 20.3764 70.4873 21.2255V21.7097C70.9337 20.6598 71.6635 19.6903 72.5776 19.6903C73.5306 19.6903 74.0774 20.3162 74.0774 21.1854C74.0774 21.9931 73.5507 22.4785 72.9212 22.6202C71.36 22.9851 70.4885 24.1767 70.4885 26.3591V29.2288C70.4885 30.0779 69.7988 30.7652 68.9462 30.7652C68.7442 30.7657 68.544 30.7263 68.3572 30.6494C68.1704 30.5725 68.0006 30.4595 67.8575 30.317C67.7144 30.1744 67.6007 30.005 67.5231 29.8185C67.4455 29.632 67.4053 29.432 67.405 29.23V21.2255ZM73.7125 27.5318V27.4916C73.7125 25.1262 75.517 24.035 78.0938 24.035C79.1885 24.035 79.9798 24.2169 80.7509 24.479V24.2972C80.7509 23.0253 79.9597 22.3167 78.4186 22.3167C77.6971 22.309 76.9787 22.4114 76.2881 22.6202C76.1456 22.673 75.9949 22.7006 75.8429 22.7017C75.6762 22.7048 75.5106 22.6747 75.3557 22.6131C75.2008 22.5515 75.0597 22.4596 74.9408 22.3428C74.8218 22.226 74.7273 22.0867 74.6628 21.933C74.5983 21.7793 74.5651 21.6142 74.5651 21.4475C74.5651 20.9019 74.9076 20.4378 75.3965 20.2548C76.3696 19.891 77.4242 19.6903 78.8638 19.6903C80.5466 19.6903 81.7642 20.1343 82.5342 20.9019C83.3455 21.7097 83.7116 22.9036 83.7116 24.3586V29.289C83.7116 30.1181 83.042 30.7652 82.2106 30.7652C81.3178 30.7652 80.7297 30.1393 80.7297 29.4922V29.4709C79.9798 30.2999 78.9464 30.8455 77.4443 30.8455C75.3965 30.8455 73.7125 29.674 73.7125 27.5318ZM80.7911 26.8232V26.2788C80.1712 26.0064 79.5007 25.8683 78.8236 25.8737C77.5045 25.8737 76.6944 26.3992 76.6944 27.37V27.4101C76.6944 28.2392 77.3841 28.7245 78.3772 28.7245C79.818 28.7245 80.7911 27.9357 80.7911 26.8232ZM85.3543 21.2255C85.3543 20.3764 86.0439 19.6903 86.8966 19.6903C87.7481 19.6903 88.4377 20.3764 88.4377 21.2255V21.3472C89.1463 20.4378 90.0804 19.6088 91.6416 19.6088C93.0611 19.6088 94.1358 20.2347 94.7038 21.3271C95.6569 20.2158 96.7941 19.6088 98.2727 19.6088C100.565 19.6088 101.945 20.9834 101.945 23.591V29.2288C101.945 30.0779 101.255 30.7652 100.403 30.7652C100.201 30.7657 100.001 30.7263 99.814 30.6494C99.6271 30.5725 99.4572 30.4596 99.314 30.317C99.1708 30.1745 99.057 30.0051 98.9793 29.8186C98.9015 29.6321 98.8612 29.4321 98.8608 29.23V24.6007C98.8608 23.1457 98.2113 22.3982 97.0563 22.3982C95.9001 22.3982 95.1904 23.1457 95.1904 24.6007V29.23C95.1904 30.0779 94.5019 30.7652 93.6493 30.7652C93.2413 30.7658 92.8499 30.6045 92.5609 30.3166C92.2719 30.0287 92.1091 29.6379 92.1081 29.23V24.6007C92.1081 23.1457 91.4586 22.3982 90.3036 22.3982C89.1463 22.3982 88.4377 23.1457 88.4377 24.6007V29.23C88.4377 30.0779 87.7481 30.7652 86.8966 30.7652C86.6945 30.7658 86.4942 30.7266 86.3073 30.6498C86.1203 30.5729 85.9504 30.46 85.8071 30.3174C85.6639 30.1748 85.5501 30.0053 85.4724 29.8188C85.3947 29.6322 85.3546 29.4321 85.3543 29.23V21.2255ZM103.608 21.2255C103.608 20.3764 104.298 19.6903 105.149 19.6903C106.002 19.6903 106.692 20.3764 106.692 21.2255V21.3472C107.4 20.4378 108.333 19.6088 109.896 19.6088C111.315 19.6088 112.39 20.2347 112.958 21.3271C113.911 20.2158 115.047 19.6088 116.527 19.6088C118.819 19.6088 120.198 20.9834 120.198 23.591V29.2288C120.198 30.0779 119.508 30.7652 118.656 30.7652C118.248 30.7658 117.856 30.6045 117.567 30.3166C117.278 30.0287 117.116 29.6379 117.115 29.23V24.6007C117.115 23.1457 116.465 22.3982 115.31 22.3982C114.153 22.3982 113.444 23.1457 113.444 24.6007V29.23C113.444 30.0779 112.755 30.7652 111.903 30.7652C111.701 30.7657 111.501 30.7263 111.314 30.6494C111.127 30.5725 110.958 30.4595 110.814 30.317C110.671 30.1744 110.558 30.005 110.48 29.8185C110.402 29.632 110.362 29.432 110.362 29.23V24.6007C110.362 23.1457 109.713 22.3982 108.556 22.3982C107.4 22.3982 106.69 23.1457 106.69 24.6007V29.23C106.69 30.0779 106.002 30.7652 105.149 30.7652C104.947 30.7657 104.747 30.7263 104.56 30.6494C104.374 30.5725 104.204 30.4595 104.061 30.317C103.918 30.1744 103.804 30.005 103.726 29.8185C103.649 29.632 103.609 29.432 103.608 29.23V21.2255ZM121.213 27.5318V27.4916C121.213 25.1262 123.018 24.035 125.594 24.035C126.498 24.0268 127.397 24.1771 128.25 24.479V24.2972C128.25 23.0253 127.459 22.3167 125.917 22.3167C125.066 22.3167 124.376 22.4383 123.788 22.6202C123.646 22.673 123.495 22.7006 123.343 22.7017C123.176 22.7052 123.01 22.6753 122.855 22.6138C122.7 22.5523 122.559 22.4604 122.44 22.3436C122.321 22.2268 122.226 22.0873 122.162 21.9335C122.097 21.7796 122.064 21.6144 122.064 21.4475C122.064 20.9019 122.41 20.4378 122.895 20.2548C123.87 19.891 124.924 19.6903 126.364 19.6903C128.048 19.6903 129.264 20.1343 130.034 20.9019C130.846 21.7097 131.211 22.9036 131.211 24.3586V29.289C131.211 29.4849 131.172 29.6788 131.096 29.8594C131.02 30.0401 130.909 30.2039 130.77 30.3413C130.63 30.4787 130.465 30.5869 130.283 30.6597C130.101 30.7325 129.907 30.7683 129.711 30.7652C128.818 30.7652 128.23 30.1393 128.23 29.4922V29.4709C127.48 30.2999 126.444 30.8455 124.944 30.8455C122.895 30.8455 121.213 29.674 121.213 27.5318ZM128.291 26.8232V26.2788C127.671 26.0065 127.001 25.8684 126.324 25.8737C125.005 25.8737 124.194 26.3992 124.194 27.37V27.4101C124.194 28.2392 124.883 28.7245 125.877 28.7245C127.317 28.7245 128.291 27.9357 128.291 26.8232ZM132.854 21.2255C132.854 20.3764 133.544 19.6903 134.396 19.6903C135.248 19.6903 135.937 20.3764 135.937 21.2255V21.7097C136.383 20.6598 137.113 19.6903 138.027 19.6903C138.979 19.6903 139.527 20.3162 139.527 21.1854C139.527 21.9931 138.999 22.4785 138.371 22.6202C136.809 22.9851 135.937 24.1767 135.937 26.3591V29.2288C135.937 30.0779 135.248 30.7652 134.396 30.7652C133.988 30.7658 133.596 30.6045 133.307 30.3166C133.018 30.0287 132.855 29.6379 132.854 29.23V21.2255ZM140.46 17.3048C140.46 16.4545 141.149 15.7695 142.001 15.7695C142.853 15.7695 143.543 16.4545 143.543 17.3048V29.2288C143.543 30.0779 142.853 30.7652 142.001 30.7652C141.593 30.7658 141.201 30.6045 140.912 30.3166C140.623 30.0287 140.461 29.6379 140.46 29.23V17.3036V17.3048ZM145.997 33.655C145.551 33.4944 145.023 33.1295 145.023 32.3831C145.019 32.2205 145.048 32.0589 145.108 31.9076C145.167 31.7563 145.256 31.6183 145.37 31.5016C145.483 31.3849 145.618 31.2919 145.768 31.2279C145.917 31.164 146.078 31.1303 146.24 31.1289C146.484 31.1289 146.625 31.1691 146.747 31.2104C147.01 31.2907 147.173 31.3321 147.397 31.3321C147.943 31.3321 148.208 31.2305 148.491 30.6849L148.593 30.4416L144.882 21.8727C144.79 21.647 144.734 21.4076 144.719 21.1641C144.719 20.2961 145.389 19.6903 146.24 19.6903C147.01 19.6903 147.457 20.1142 147.72 20.8417L150.074 27.148L152.345 20.8618C152.588 20.2158 153.033 19.6903 153.826 19.6903C154.616 19.6903 155.284 20.2961 155.284 21.1051C155.284 21.3472 155.204 21.6908 155.144 21.8325L151.35 30.9069C150.438 33.1094 149.526 33.9384 147.68 33.9384C146.99 33.9384 146.504 33.838 145.997 33.655Z" fill="#4C4C4C"/>
<path fill-rule="evenodd" clip-rule="evenodd" d="M45.7121 25.2157C45.7121 34.4861 38.1706 42.0017 28.8683 42.0017C19.5659 42.0017 12.0244 34.4861 12.0244 25.2157C12.0244 15.9452 19.5659 8.42969 28.8683 8.42969C38.1706 8.42969 45.7121 15.9452 45.7121 25.2157Z" fill="#15C39A"/>
<path fill-rule="evenodd" clip-rule="evenodd" d="M31.0688 28.8384C31.168 29.3876 31.6865 29.7643 32.2474 29.7643H34.0118L35.0345 29.6226C33.3977 32.0152 30.5563 33.1158 27.4492 32.6305C24.9196 32.2348 22.7467 30.5284 21.8291 28.1464C19.7483 22.7388 23.7104 17.5769 28.8746 17.5769C31.566 17.5769 33.9256 19.1464 35.2789 21.0418C35.6379 21.5579 36.3512 21.7468 36.8697 21.389C37.1052 21.2295 37.2713 20.9865 37.3344 20.7092C37.3976 20.4318 37.353 20.1408 37.2098 19.8951C36.2506 18.4013 34.9071 17.1932 33.3203 16.3974C31.7334 15.6016 29.9617 15.2474 28.1909 15.3721C23.2663 15.7016 19.2806 19.718 18.9972 24.6283C18.6689 30.3441 23.2167 35.0089 28.8746 35.0089C30.2854 35.0147 31.6808 34.7161 32.9656 34.1334C34.2504 33.5507 35.3943 32.6977 36.3193 31.6326L36.1044 32.83V33.9118C36.1044 34.4692 36.4823 34.9864 37.0338 35.0856C37.1985 35.1167 37.3679 35.1111 37.5302 35.0693C37.6924 35.0274 37.8435 34.9504 37.9727 34.8437C38.1018 34.737 38.2059 34.6031 38.2775 34.4517C38.3492 34.3002 38.3866 34.1348 38.3872 33.9673V27.4886H32.1907C32.0231 27.4883 31.8575 27.525 31.7057 27.5961C31.5539 27.6672 31.4196 27.7709 31.3125 27.8998C31.2053 28.0287 31.128 28.1797 31.0858 28.3419C31.0437 28.5041 31.0379 28.6737 31.0688 28.8384Z" fill="white"/>
</svg>
