<svg width="184" height="50" viewBox="0 0 184 50" fill="none" xmlns="http://www.w3.org/2000/svg">
<path fill-rule="evenodd" clip-rule="evenodd" d="M7.66875 42.1179H8.07777C8.45991 42.1179 8.74589 42.0424 8.93572 41.8916C9.12554 41.7405 9.22055 41.5206 9.22055 41.2319C9.22055 40.9407 9.1409 40.7252 8.98197 40.5864C8.82267 40.4473 8.57354 40.3778 8.234 40.3778H7.66875V42.1179ZM10.4754 41.1877C10.4754 41.8186 10.2781 42.301 9.88407 42.6353C9.48964 42.9693 8.929 43.1365 8.20195 43.1365H7.66875V45.2213H6.42578V39.3594H8.2983C9.00923 39.3594 9.54972 39.5125 9.91996 39.8185C10.2902 40.1246 10.4754 40.581 10.4754 41.1877Z" fill="#717592"/>
<path fill-rule="evenodd" clip-rule="evenodd" d="M13.2352 41.9616H13.6361C14.029 41.9616 14.319 41.8962 14.5062 41.7651C14.6931 41.6342 14.787 41.4284 14.787 41.1476C14.787 40.8695 14.6914 40.6718 14.5 40.5544C14.3088 40.4367 14.0129 40.3778 13.6121 40.3778H13.2352V41.9616ZM13.2352 42.9722V45.2213H11.9922V39.3594H13.7002C14.4967 39.3594 15.0862 39.5045 15.4683 39.7945C15.8507 40.0845 16.0418 40.525 16.0418 41.1156C16.0418 41.4605 15.947 41.767 15.757 42.0359C15.5674 42.3044 15.2987 42.515 14.9513 42.6674C15.8334 43.985 16.408 44.8362 16.6752 45.2213H15.296L13.8968 42.9722H13.2352Z" fill="#717592"/>
<path fill-rule="evenodd" clip-rule="evenodd" d="M17.8242 45.2213H19.067V39.3594H17.8242V45.2213Z" fill="#717592"/>
<path fill-rule="evenodd" clip-rule="evenodd" d="M24.2965 39.3594H25.5516L23.5587 45.2213H22.2035L20.2148 39.3594H21.4697L22.5724 42.8476C22.6338 43.0536 22.6973 43.2933 22.7628 43.5674C22.8282 43.8414 22.8691 44.0318 22.8852 44.1388C22.9144 43.8927 23.0148 43.4626 23.1858 42.8476L24.2965 39.3594Z" fill="#717592"/>
<path fill-rule="evenodd" clip-rule="evenodd" d="M29.5674 42.7841C29.1745 41.5198 28.9532 40.8048 28.9037 40.639C28.8544 40.4733 28.8191 40.3423 28.7978 40.2459C28.7095 40.5883 28.4567 41.4344 28.04 42.7841H29.5674ZM30.2891 45.2218L29.8642 43.8266H27.7272L27.3022 45.2218H25.9629L28.032 39.3359H29.5515L31.6284 45.2218H30.2891Z" fill="#717592"/>
<path fill-rule="evenodd" clip-rule="evenodd" d="M35.2661 40.3078C34.7981 40.3078 34.4361 40.4836 34.1795 40.835C33.9229 41.1866 33.7945 41.6763 33.7945 42.3047C33.7945 43.6116 34.2851 44.2653 35.2661 44.2653C35.6776 44.2653 36.1762 44.1622 36.7616 43.9565V44.9989C36.2804 45.1994 35.7432 45.2996 35.1497 45.2996C34.297 45.2996 33.645 45.0411 33.1932 44.5238C32.7413 44.0066 32.5156 43.2642 32.5156 42.2966C32.5156 41.687 32.6264 41.1533 32.8482 40.6947C33.0701 40.2362 33.3889 39.8848 33.8047 39.6402C34.2202 39.3955 34.7073 39.2734 35.2661 39.2734C35.8355 39.2734 36.4073 39.4111 36.982 39.6863L36.581 40.6968C36.362 40.5926 36.1413 40.5016 35.9196 40.4241C35.6977 40.3467 35.4799 40.3078 35.2661 40.3078Z" fill="#717592"/>
<path fill-rule="evenodd" clip-rule="evenodd" d="M40.2436 41.7731L41.4666 39.3594H42.8057L40.861 42.9399V45.2213H39.6263V42.98L37.6816 39.3594H39.0286L40.2436 41.7731Z" fill="#717592"/>
<path fill-rule="evenodd" clip-rule="evenodd" d="M45.0566 44.3578C44.9175 44.8979 44.6822 45.5378 44.3509 46.2783H43.4688C43.6423 45.5673 43.7776 44.8965 43.8737 44.2656H44.9964L45.0566 44.3578Z" fill="#717592"/>
<path fill-rule="evenodd" clip-rule="evenodd" d="M52.75 43.5916C52.75 44.121 52.5594 44.5378 52.1784 44.8424C51.7976 45.1472 51.2676 45.2996 50.5888 45.2996C49.9632 45.2996 49.4099 45.182 48.9287 44.9467V43.7922C49.3243 43.9686 49.659 44.0927 49.9331 44.1649C50.2072 44.2371 50.4577 44.2733 50.6849 44.2733C50.9577 44.2733 51.1667 44.2211 51.3124 44.1167C51.458 44.0125 51.531 43.8576 51.531 43.6517C51.531 43.5369 51.4989 43.4346 51.4346 43.3452C51.3705 43.2555 51.2763 43.1693 51.1519 43.0864C51.0277 43.0035 50.7746 42.8713 50.3922 42.6895C50.0339 42.5212 49.7654 42.3594 49.5863 42.2043C49.4072 42.0494 49.2642 41.8688 49.1573 41.663C49.0504 41.4573 48.9969 41.2168 48.9969 40.9414C48.9969 40.4227 49.1727 40.0151 49.5241 39.7183C49.8755 39.4216 50.3613 39.2734 50.9816 39.2734C51.2864 39.2734 51.577 39.3093 51.8538 39.3815C52.1304 39.4537 52.4196 39.5556 52.7217 39.6863L52.3208 40.6525C52.0079 40.5243 51.7496 40.4348 51.545 40.384C51.3406 40.3331 51.1392 40.3078 50.9415 40.3078C50.7062 40.3078 50.526 40.3627 50.4001 40.4723C50.2746 40.5819 50.2118 40.7247 50.2118 40.9012C50.2118 41.011 50.2371 41.1064 50.2878 41.1878C50.3387 41.2694 50.4197 41.3483 50.5306 41.4245C50.6414 41.5007 50.9039 41.6377 51.3185 41.8354C51.8663 42.0976 52.2419 42.3601 52.4452 42.6233C52.648 42.8866 52.75 43.2095 52.75 43.5916Z" fill="#717592"/>
<path fill-rule="evenodd" clip-rule="evenodd" d="M57.5986 45.2213H54.2227V39.3594H57.5986V40.3778H55.4656V41.6649H57.4504V42.6833H55.4656V44.195H57.5986V45.2213Z" fill="#717592"/>
<path fill-rule="evenodd" clip-rule="evenodd" d="M61.7221 40.3078C61.2542 40.3078 60.892 40.4836 60.6356 40.835C60.3789 41.1866 60.2505 41.6763 60.2505 42.3047C60.2505 43.6116 60.7409 44.2653 61.7221 44.2653C62.1336 44.2653 62.6323 44.1622 63.2177 43.9565V44.9989C62.7365 45.1994 62.1993 45.2996 61.6058 45.2996C60.753 45.2996 60.1008 45.0411 59.6492 44.5238C59.1972 44.0066 58.9717 43.2642 58.9717 42.2966C58.9717 41.687 59.0824 41.1533 59.3043 40.6947C59.5262 40.2362 59.8448 39.8848 60.2605 39.6402C60.6761 39.3955 61.1634 39.2734 61.7221 39.2734C62.2916 39.2734 62.8634 39.4111 63.438 39.6863L63.0371 40.6968C62.8181 40.5926 62.5973 40.5016 62.3757 40.4241C62.1538 40.3467 61.9359 40.3078 61.7221 40.3078Z" fill="#717592"/>
<path fill-rule="evenodd" clip-rule="evenodd" d="M69.6476 39.3594V43.1524C69.6476 43.5854 69.5506 43.9651 69.3568 44.2911C69.1629 44.6172 68.8829 44.8673 68.5167 45.0408C68.1505 45.2147 67.7175 45.3015 67.2177 45.3015C66.4639 45.3015 65.8785 45.1084 65.4615 44.7222C65.0444 44.3359 64.8359 43.8073 64.8359 43.1365V39.3594H66.0751V42.948C66.0751 43.3996 66.1659 43.7313 66.3476 43.9422C66.5294 44.1535 66.8301 44.2591 67.2499 44.2591C67.656 44.2591 67.9507 44.1528 68.1338 43.9401C68.3169 43.7278 68.4086 43.3944 68.4086 42.9399V39.3594H69.6476Z" fill="#717592"/>
<path fill-rule="evenodd" clip-rule="evenodd" d="M72.7361 41.9616H73.1369C73.53 41.9616 73.82 41.8962 74.0071 41.7651C74.1941 41.6342 74.2879 41.4284 74.2879 41.1476C74.2879 40.8695 74.1922 40.6718 74.001 40.5544C73.8098 40.4367 73.5139 40.3778 73.1129 40.3778H72.7361V41.9616ZM72.7361 42.9722V45.2213H71.4932V39.3594H73.2012C73.9977 39.3594 74.5872 39.5045 74.9693 39.7945C75.3516 40.0845 75.5428 40.525 75.5428 41.1156C75.5428 41.4605 75.4478 41.767 75.258 42.0359C75.0683 42.3044 74.7996 42.515 74.4522 42.6674C75.3344 43.985 75.909 44.8362 76.1762 45.2213H74.7969L73.3977 42.9722H72.7361Z" fill="#717592"/>
<path fill-rule="evenodd" clip-rule="evenodd" d="M77.3242 45.2213H78.567V39.3594H77.3242V45.2213Z" fill="#717592"/>
<path fill-rule="evenodd" clip-rule="evenodd" d="M82.7148 45.2213H81.4716V40.3939H79.8799V39.3594H84.3065V40.3939H82.7148V45.2213Z" fill="#717592"/>
<path fill-rule="evenodd" clip-rule="evenodd" d="M87.444 41.7731L88.6668 39.3594H90.0059L88.0612 42.9399V45.2213H86.8265V42.98L84.8818 39.3594H86.2288L87.444 41.7731Z" fill="#717592"/>
<path fill-rule="evenodd" clip-rule="evenodd" d="M96.0145 40.6767C96.0145 40.535 95.9664 40.4235 95.8702 40.3419C95.774 40.2604 95.6497 40.2195 95.4973 40.2195C95.3182 40.2195 95.1771 40.2623 95.0742 40.3479C94.9714 40.4335 94.9199 40.5552 94.9199 40.7128C94.9199 40.9479 95.0468 41.2074 95.3007 41.4907C95.5307 41.3625 95.707 41.236 95.8301 41.1118C95.9529 40.9874 96.0145 40.8425 96.0145 40.6767ZM94.5752 43.5194C94.5752 43.7494 94.6614 43.9323 94.8335 44.0687C95.0061 44.205 95.2272 44.2733 95.4973 44.2733C95.8341 44.2733 96.1374 44.1918 96.4074 44.0286L95.0763 42.7056C94.9211 42.8231 94.799 42.9461 94.7094 43.0743C94.6197 43.2025 94.5752 43.3511 94.5752 43.5194ZM99.1179 45.2194H97.6062L97.145 44.7664C96.6345 45.1219 96.0571 45.2996 95.413 45.2996C94.7608 45.2996 94.2435 45.1499 93.8614 44.8505C93.4793 44.5513 93.2881 44.1461 93.2881 43.6355C93.2881 43.2695 93.3689 42.9574 93.5305 42.6995C93.6923 42.4417 93.9697 42.2003 94.3625 41.9757C94.162 41.7459 94.0165 41.526 93.9255 41.3162C93.8345 41.1064 93.7892 40.8771 93.7892 40.6285C93.7892 40.2222 93.9449 39.8947 94.2564 39.6462C94.5677 39.3976 94.9842 39.2734 95.5051 39.2734C96.0024 39.2734 96.3999 39.389 96.698 39.6201C96.9961 39.8514 97.145 40.1609 97.145 40.5483C97.145 40.8665 97.0529 41.1571 96.8684 41.4204C96.684 41.6838 96.3859 41.9344 95.9744 42.1722L97.113 43.2828C97.303 42.9703 97.4673 42.5678 97.6062 42.0759H98.8813C98.7849 42.4367 98.6529 42.7891 98.4843 43.1325C98.316 43.4759 98.1249 43.7801 97.911 44.0446L99.1179 45.2194Z" fill="#717592"/>
<path fill-rule="evenodd" clip-rule="evenodd" d="M105.036 41.9277H107.361V44.9668C106.984 45.0896 106.629 45.176 106.297 45.2255C105.964 45.2749 105.623 45.2996 105.276 45.2996C104.391 45.2996 103.716 45.0397 103.249 44.5198C102.783 44 102.55 43.2534 102.55 42.2805C102.55 41.3342 102.82 40.5964 103.361 40.0673C103.903 39.5381 104.653 39.2734 105.613 39.2734C106.214 39.2734 106.794 39.3938 107.353 39.6343L106.94 40.6285C106.512 40.4147 106.067 40.3078 105.605 40.3078C105.068 40.3078 104.637 40.4882 104.314 40.8492C103.99 41.2101 103.829 41.6951 103.829 42.3047C103.829 42.9407 103.959 43.4265 104.22 43.762C104.48 44.0975 104.859 44.2653 105.356 44.2653C105.616 44.2653 105.879 44.2384 106.146 44.1851V42.9622H105.036V41.9277Z" fill="#717592"/>
<path fill-rule="evenodd" clip-rule="evenodd" d="M110.209 42.2807C110.209 42.9356 110.333 43.4287 110.582 43.7604C110.831 44.0916 111.202 44.2575 111.697 44.2575C112.689 44.2575 113.184 43.5986 113.184 42.2807C113.184 40.9602 112.691 40.3 111.705 40.3C111.21 40.3 110.837 40.4666 110.586 40.7992C110.335 41.132 110.209 41.6259 110.209 42.2807ZM114.487 42.2807C114.487 43.251 114.247 43.9968 113.766 44.5181C113.284 45.0392 112.595 45.2999 111.697 45.2999C110.799 45.2999 110.109 45.0392 109.628 44.5181C109.147 43.9968 108.906 43.2485 108.906 42.2727C108.906 41.2971 109.147 40.552 109.63 40.0374C110.112 39.523 110.804 39.2656 111.705 39.2656C112.605 39.2656 113.294 39.5247 113.772 40.0435C114.249 40.5621 114.487 41.3076 114.487 42.2807Z" fill="#717592"/>
<path fill-rule="evenodd" clip-rule="evenodd" d="M119.457 39.3594H120.713L118.72 45.2213H117.365L115.376 39.3594H116.631L117.734 42.8476C117.795 43.0536 117.858 43.2933 117.924 43.5674C117.989 43.8414 118.03 44.0318 118.046 44.1388C118.076 43.8927 118.176 43.4626 118.347 42.8476L119.457 39.3594Z" fill="#717592"/>
<path fill-rule="evenodd" clip-rule="evenodd" d="M125.236 45.2213H121.86V39.3594H125.236V40.3778H123.103V41.6649H125.088V42.6833H123.103V44.195H125.236V45.2213Z" fill="#717592"/>
<path fill-rule="evenodd" clip-rule="evenodd" d="M128.113 41.9616H128.514C128.907 41.9616 129.197 41.8962 129.384 41.7651C129.571 41.6342 129.665 41.4284 129.665 41.1476C129.665 40.8695 129.569 40.6718 129.378 40.5544C129.187 40.4367 128.891 40.3778 128.49 40.3778H128.113V41.9616ZM128.113 42.9722V45.2213H126.87V39.3594H128.578C129.374 39.3594 129.964 39.5045 130.346 39.7945C130.728 40.0845 130.92 40.525 130.92 41.1156C130.92 41.4605 130.825 41.767 130.635 42.0359C130.445 42.3044 130.176 42.515 129.829 42.6674C130.711 43.985 131.286 44.8362 131.553 45.2213H130.174L128.774 42.9722H128.113Z" fill="#717592"/>
<path fill-rule="evenodd" clip-rule="evenodd" d="M137.901 45.2213H136.322L133.772 40.7868H133.736C133.787 41.5701 133.812 42.1286 133.812 42.4628V45.2213H132.701V39.3594H134.269L136.815 43.7497H136.843C136.803 42.9881 136.783 42.4495 136.783 42.134V39.3594H137.901V45.2213Z" fill="#717592"/>
<path fill-rule="evenodd" clip-rule="evenodd" d="M142.654 42.7841C142.261 41.5198 142.04 40.8048 141.991 40.639C141.941 40.4733 141.906 40.3423 141.884 40.2459C141.796 40.5883 141.544 41.4344 141.127 42.7841H142.654ZM143.376 45.2218L142.951 43.8266H140.814L140.389 45.2218H139.05L141.119 39.3359H142.638L144.715 45.2218H143.376Z" fill="#717592"/>
<path fill-rule="evenodd" clip-rule="evenodd" d="M151.063 45.2213H149.484L146.934 40.7868H146.898C146.948 41.5701 146.974 42.1286 146.974 42.4628V45.2213H145.863V39.3594H147.431L149.977 43.7497H150.005C149.965 42.9881 149.945 42.4495 149.945 42.134V39.3594H151.063V45.2213Z" fill="#717592"/>
<path fill-rule="evenodd" clip-rule="evenodd" d="M155.44 40.3078C154.972 40.3078 154.61 40.4836 154.353 40.835C154.097 41.1866 153.968 41.6763 153.968 42.3047C153.968 43.6116 154.459 44.2653 155.44 44.2653C155.852 44.2653 156.35 44.1622 156.935 43.9565V44.9989C156.454 45.1994 155.917 45.2996 155.324 45.2996C154.471 45.2996 153.819 45.0411 153.367 44.5238C152.915 44.0066 152.689 43.2642 152.689 42.2966C152.689 41.687 152.8 41.1533 153.022 40.6947C153.244 40.2362 153.563 39.8848 153.978 39.6402C154.394 39.3955 154.881 39.2734 155.44 39.2734C156.009 39.2734 156.581 39.4111 157.156 39.6863L156.755 40.6968C156.536 40.5926 156.315 40.5016 156.093 40.4241C155.872 40.3467 155.654 40.3078 155.44 40.3078Z" fill="#717592"/>
<path fill-rule="evenodd" clip-rule="evenodd" d="M161.969 45.2213H158.593V39.3594H161.969V40.3778H159.836V41.6649H161.82V42.6833H159.836V44.195H161.969V45.2213Z" fill="#717592"/>
<path fill-rule="evenodd" clip-rule="evenodd" d="M18.6482 27.9886C15.9096 27.9886 13.7976 27.1105 12.3707 25.3787C10.9297 23.6306 10.199 21.011 10.199 17.5934C10.199 14.2229 10.9297 11.6273 12.3707 9.87878C13.798 8.14695 15.9219 7.26885 18.6835 7.26885C21.4324 7.26885 23.532 8.14043 24.9243 9.85921C26.3311 11.5968 27.0444 14.1989 27.0444 17.5934C27.0444 21.0231 26.3281 23.6461 24.9156 25.3894C23.5174 27.1142 21.409 27.9886 18.6482 27.9886ZM18.6835 4C14.7941 4 11.7454 5.2019 9.62223 7.57268C7.50691 9.93387 6.43457 13.2935 6.43457 17.5581C6.43457 21.8573 7.50384 25.2403 9.61263 27.6132C11.7299 29.9963 14.7701 31.2047 18.6482 31.2047C22.4443 31.2047 25.4546 29.9754 27.596 27.5506C29.7278 25.1365 30.8088 21.7864 30.8088 17.5934C30.8088 13.3887 29.7309 10.0387 27.6046 7.63583C25.4694 5.2232 22.4679 4 18.6835 4Z" fill="#6ABF4B"/>
<path fill-rule="evenodd" clip-rule="evenodd" d="M45.0075 10.5273C43.6374 10.5273 42.3747 10.8018 41.2548 11.3435C40.2912 11.8095 39.501 12.4475 38.8999 13.2442L38.4744 10.8811H35.5537V30.8502H39.0703V20.388C39.0703 17.947 39.5229 16.1835 40.4156 15.1461C41.297 14.1213 42.7229 13.6018 44.6537 13.6018C46.0956 13.6018 47.1608 13.9632 47.8197 14.6762C48.4848 15.3958 48.8218 16.5199 48.8218 18.0174V30.8502H52.3384V17.9113C52.3384 15.3641 51.7131 13.4753 50.4797 12.297C49.2498 11.1227 47.4088 10.5273 45.0075 10.5273Z" fill="#6ABF4B"/>
<path fill-rule="evenodd" clip-rule="evenodd" d="M65.4759 13.5663C66.9323 13.5663 68.0169 14.0156 68.7917 14.9397C69.5257 15.8154 69.9178 17.0856 69.9589 18.7182H60.4381C60.6295 17.1474 61.1429 15.8952 61.9661 14.9933C62.8427 14.033 63.9907 13.5663 65.4759 13.5663ZM65.5114 10.5273C62.8389 10.5273 60.6779 11.4907 59.0883 13.391C57.5115 15.2758 56.7119 17.8441 56.7119 21.0249C56.7119 24.1893 57.575 26.7027 59.2773 28.4954C60.983 30.2926 63.3366 31.2041 66.272 31.2041C67.5952 31.2041 68.7432 31.1038 69.684 30.9059C70.6253 30.708 71.6349 30.3779 72.6849 29.9243L72.86 29.8489V26.6002L72.456 26.7731C70.4618 27.6263 68.4169 28.0589 66.3782 28.0589C64.4901 28.0589 63.0112 27.495 61.9826 26.3829C60.9932 25.3136 60.4431 23.7346 60.3456 21.6863H73.6915V19.5389C73.6915 16.8601 72.9527 14.6676 71.4957 13.0221C70.0295 11.3667 68.0161 10.5273 65.5114 10.5273Z" fill="#6ABF4B"/>
<path fill-rule="evenodd" clip-rule="evenodd" d="M75.3223 7.65763H83.5131V30.8503H87.1006V7.65763H95.2914V4.40625H75.3223V7.65763Z" fill="#6ABF4B"/>
<path fill-rule="evenodd" clip-rule="evenodd" d="M107.297 10.5273C106.029 10.5273 104.849 10.8891 103.791 11.6029C102.898 12.2052 102.108 13.0319 101.437 14.0655L101.139 10.8811H98.1611V30.8502H101.678V20.1581C101.678 18.3403 102.216 16.8036 103.278 15.5902C104.345 14.3712 105.59 13.7785 107.084 13.7785C107.673 13.7785 108.367 13.8657 109.145 14.0371L109.448 14.1042L109.942 10.8012L109.673 10.7456C108.972 10.6007 108.173 10.5273 107.297 10.5273Z" fill="#6ABF4B"/>
<path fill-rule="evenodd" clip-rule="evenodd" d="M126.024 21.3629C126.024 23.7928 125.574 25.557 124.686 26.6065C123.811 27.6418 122.388 28.1668 120.458 28.1668C119.017 28.1668 117.951 27.8052 117.293 27.0923C116.628 26.3731 116.291 25.249 116.291 23.7511V10.8828H112.738V23.8571C112.738 26.3933 113.361 28.2731 114.588 29.4449C115.812 30.6134 117.662 31.2059 120.087 31.2059C121.491 31.2059 122.762 30.9404 123.865 30.417C124.818 29.9644 125.602 29.3316 126.202 28.5324L126.581 30.8519H129.541V10.8828H126.024V21.3629Z" fill="#6ABF4B"/>
<path fill-rule="evenodd" clip-rule="evenodd" d="M142.214 19.2671C140.561 18.6504 139.432 18.1744 138.857 17.8527C138.308 17.5453 137.908 17.222 137.668 16.8917C137.437 16.5741 137.325 16.196 137.325 15.7353C137.325 15.0704 137.627 14.5611 138.249 14.1778C138.907 13.772 139.915 13.5663 141.246 13.5663C142.78 13.5663 144.523 13.9638 146.425 14.7474L146.687 14.8557L147.962 11.939L147.693 11.8242C145.673 10.9636 143.575 10.5273 141.458 10.5273C139.166 10.5273 137.33 11.0066 136 11.9519C134.64 12.9192 133.95 14.2576 133.95 15.9299C133.95 16.8622 134.151 17.6792 134.547 18.3581C134.94 19.031 135.541 19.6379 136.336 20.1613C137.111 20.6723 138.425 21.2744 140.239 21.9502C142.101 22.6671 143.362 23.2914 143.99 23.8054C144.579 24.2887 144.865 24.849 144.865 25.5183C144.865 26.419 144.507 27.0695 143.769 27.5067C142.993 27.9672 141.852 28.2005 140.379 28.2005C139.416 28.2005 138.402 28.0666 137.363 27.8023C136.321 27.5376 135.332 27.1702 134.424 26.7102L134.003 26.4971V29.8627L134.151 29.9458C135.627 30.7807 137.698 31.2041 140.308 31.2041C142.789 31.2041 144.751 30.6913 146.14 29.6802C147.557 28.6481 148.276 27.1647 148.276 25.2707C148.276 23.9144 147.841 22.7697 146.984 21.8686C146.137 20.9786 144.576 20.1274 142.214 19.2671Z" fill="#6ABF4B"/>
<path fill-rule="evenodd" clip-rule="evenodd" d="M161.597 27.8572C161.326 27.9362 160.952 28.014 160.483 28.0879C160.018 28.162 159.528 28.1996 159.025 28.1996C158.136 28.1996 157.461 27.9249 156.96 27.3593C156.457 26.7921 156.201 25.9522 156.201 24.8628V13.7423H161.827V10.8801H156.201V6.38672H153.997L152.735 10.6049L149.907 11.8477V13.7423H152.685V24.9868C152.685 29.1117 154.675 31.2032 158.6 31.2032C159.107 31.2032 159.685 31.1513 160.319 31.049C160.973 30.9429 161.459 30.8103 161.805 30.6437L161.969 30.5646V27.7491L161.597 27.8572Z" fill="#6ABF4B"/>
</svg>
