<svg width="1051" height="159" viewBox="0 0 1051 159" fill="none" xmlns="http://www.w3.org/2000/svg">
<mask id="mask0_2405_13125" style="mask-type:alpha" maskUnits="userSpaceOnUse" x="0" y="0" width="1051" height="159">
<path d="M525.5 0.5C670.596 0.5 801.945 9.39741 897.01 23.7793C944.546 30.9708 982.988 39.5302 1009.54 49.0254C1022.81 53.7741 1033.08 58.7468 1040.03 63.8799C1046.98 69.0226 1050.5 74.2513 1050.5 79.5C1050.5 84.7487 1046.98 89.9774 1040.03 95.1201C1033.08 100.253 1022.81 105.226 1009.54 109.975C982.988 119.47 944.546 128.029 897.01 135.221C801.945 149.603 670.596 158.5 525.5 158.5C380.404 158.5 249.055 149.603 153.99 135.221C106.454 128.029 68.0118 119.47 41.4648 109.975C28.1884 105.226 17.9167 100.253 10.9736 95.1201C4.01755 89.9774 0.5 84.7487 0.5 79.5C0.5 74.2513 4.01755 69.0226 10.9736 63.8799C17.9167 58.7468 28.1884 53.7741 41.4648 49.0254C68.0118 39.5302 106.454 30.9708 153.99 23.7793C249.055 9.39741 380.404 0.5 525.5 0.5Z" fill="url(#paint0_linear_2405_13125)" fill-opacity="0.5" stroke="url(#paint1_linear_2405_13125)"/>
</mask>
<g mask="url(#mask0_2405_13125)">
<path d="M456.212 155L580.5 151L572.942 186.5L721.546 200.5L1093.27 139L1070.87 -74.5C969.938 -98.3333 765.826 -146 756.867 -146C745.667 -146 371.787 -174.5 360.588 -174.5C351.629 -174.5 56.1999 -85.5 -90.3945 -41L-39.5675 180H454.058L456.212 155Z" fill="#D9D9D9"/>
</g>
<defs>
<linearGradient id="paint0_linear_2405_13125" x1="525.5" y1="0" x2="525.5" y2="1236.5" gradientUnits="userSpaceOnUse">
<stop stop-color="#F6FFFA" stop-opacity="0"/>
<stop offset="1" stop-color="#F5FEFA"/>
</linearGradient>
<linearGradient id="paint1_linear_2405_13125" x1="525.5" y1="0" x2="525.5" y2="242.5" gradientUnits="userSpaceOnUse">
<stop stop-color="#F6FFFA" stop-opacity="0"/>
<stop offset="1" stop-color="#F5FEFA"/>
</linearGradient>
</defs>
</svg>
