<svg width="343" height="52" viewBox="0 0 343 52" fill="none" xmlns="http://www.w3.org/2000/svg">
<mask id="mask0_2758_42798" style="mask-type:alpha" maskUnits="userSpaceOnUse" x="0" y="0" width="343" height="52">
<path d="M171.5 0.5C218.841 0.5 261.691 3.40336 292.694 8.09375C308.2 10.4395 320.721 13.2294 329.354 16.3174C333.674 17.8624 336.991 19.4714 339.219 21.1182C341.459 22.7746 342.5 24.3938 342.5 25.9453C342.5 27.4968 341.459 29.1161 339.219 30.7725C336.991 32.4192 333.674 34.0282 329.354 35.5732C320.721 38.6612 308.2 41.4511 292.694 43.7969C261.691 48.4873 218.841 51.3906 171.5 51.3906C124.159 51.3906 81.3095 48.4873 50.3057 43.7969C34.8 41.4511 22.279 38.6612 13.6455 35.5732C9.32585 34.0282 6.0087 32.4192 3.78125 30.7725C1.54078 29.1161 0.50001 27.4968 0.5 25.9453C0.5 24.3938 1.54078 22.7746 3.78125 21.1182C6.0087 19.4714 9.32585 17.8624 13.6455 16.3174C22.279 13.2294 34.8 10.4395 50.3057 8.09375C81.3095 3.40336 124.159 0.5 171.5 0.5Z" fill="url(#paint0_linear_2758_42798)" fill-opacity="0.5" stroke="url(#paint1_linear_2758_42798)"/>
</mask>
<g mask="url(#mask0_2758_42798)">
<path d="M132 49.9452H211.5V62.4452L235.481 65.4343L356.796 45.3635L349.486 -24.3135C316.545 -32.0917 249.932 -47.648 247.008 -47.648C243.353 -47.648 121.335 -56.9491 117.68 -56.9491C114.756 -56.9491 18.3412 -27.9034 -29.5007 -13.3806L-12.913 58.744L131.5 57.4452L132 49.9452Z" fill="#D9D9D9"/>
</g>
<defs>
<linearGradient id="paint0_linear_2758_42798" x1="171.5" y1="0" x2="171.5" y2="403.539" gradientUnits="userSpaceOnUse">
<stop stop-color="#F6FFFA" stop-opacity="0"/>
<stop offset="1" stop-color="#F5FEFA"/>
</linearGradient>
<linearGradient id="paint1_linear_2758_42798" x1="171.5" y1="0" x2="171.5" y2="79.1413" gradientUnits="userSpaceOnUse">
<stop stop-color="#F6FFFA" stop-opacity="0"/>
<stop offset="1" stop-color="#F5FEFA"/>
</linearGradient>
</defs>
</svg>
